<?xml version="1.0" encoding="UTF-8" standalone="no"?>
<!DOCTYPE svg PUBLIC "-//W3C//DTD SVG 1.1//EN"
 "http://www.w3.org/Graphics/SVG/1.1/DTD/svg11.dtd">
<!-- Generated by graphviz version 12.2.1 (20241206.2353)
 -->
<!-- Pages: 1 -->
<svg width="211pt" height="188pt"
 viewBox="0.00 0.00 210.62 188.00" xmlns="http://www.w3.org/2000/svg" xmlns:xlink="http://www.w3.org/1999/xlink">
<g id="graph0" class="graph" transform="scale(1 1) rotate(0) translate(4 184)">
<polygon fill="white" stroke="none" points="-4,4 -4,-184 206.62,-184 206.62,4 -4,4"/>
<!-- P -->
<g id="node1" class="node">
<title>P</title>
<ellipse fill="none" stroke="darkgray" cx="92.62" cy="-162" rx="33.95" ry="18"/>
<text text-anchor="middle" x="92.62" y="-156.95" font-family="Times,serif" font-size="14.00" fill="darkgray">parent</text>
</g>
<!-- BH2 -->
<g id="node2" class="node">
<title>BH2</title>
<polygon fill="none" stroke="black" stroke-dasharray="1,5" points="93.25,-108 0,-108 0,-72 93.25,-72 93.25,-108"/>
<text text-anchor="middle" x="46.62" y="-83.83" font-family="Italic" font-size="14.00">black height 2</text>
</g>
<!-- P&#45;&gt;BH2 -->
<g id="edge1" class="edge">
<title>P&#45;&gt;BH2</title>
<path fill="none" stroke="black" d="M81.96,-144.76C76.65,-136.7 70.11,-126.74 64.1,-117.6"/>
<polygon fill="black" stroke="black" points="67.13,-115.82 58.71,-109.39 61.28,-119.67 67.13,-115.82"/>
</g>
<!-- N -->
<g id="node3" class="node">
<title>N</title>
<ellipse fill="none" stroke="black" cx="139.62" cy="-90" rx="28.83" ry="18"/>
<text text-anchor="middle" x="139.62" y="-84.95" font-family="Times,serif" font-size="14.00">node</text>
</g>
<!-- P&#45;&gt;N -->
<g id="edge2" class="edge">
<title>P&#45;&gt;N</title>
<path fill="none" stroke="black" d="M103.53,-144.76C109.16,-136.37 116.17,-125.93 122.51,-116.5"/>
<polygon fill="black" stroke="black" points="125.27,-118.66 127.94,-108.4 119.46,-114.76 125.27,-118.66"/>
</g>
<!-- L1 -->
<g id="node4" class="node">
<title>L1</title>
<ellipse fill="none" stroke="black" cx="103.62" cy="-18" rx="27" ry="18"/>
<text text-anchor="middle" x="103.62" y="-12.95" font-family="Times,serif" font-size="14.00" fill="#fffffe" fill-opacity="0.000000">L1</text>
</g>
<!-- N&#45;&gt;L1 -->
<g id="edge3" class="edge">
<title>N&#45;&gt;L1</title>
<path fill="none" stroke="black" d="M131.09,-72.41C126.97,-64.39 121.92,-54.57 117.28,-45.54"/>
<polygon fill="black" stroke="black" points="120.47,-44.11 112.79,-36.82 114.25,-47.31 120.47,-44.11"/>
</g>
<!-- L2 -->
<g id="node5" class="node">
<title>L2</title>
<ellipse fill="none" stroke="black" cx="175.62" cy="-18" rx="27" ry="18"/>
<text text-anchor="middle" x="175.62" y="-12.95" font-family="Times,serif" font-size="14.00" fill="#fffffe" fill-opacity="0.000000">L2</text>
</g>
<!-- N&#45;&gt;L2 -->
<g id="edge4" class="edge">
<title>N&#45;&gt;L2</title>
<path fill="none" stroke="black" d="M148.16,-72.41C152.28,-64.39 157.33,-54.57 161.97,-45.54"/>
<polygon fill="black" stroke="black" points="165,-47.31 166.46,-36.82 158.78,-44.11 165,-47.31"/>
</g>
</g>
</svg>
