<?xml version="1.0" encoding="UTF-8" standalone="no"?>
<!DOCTYPE svg PUBLIC "-//W3C//DTD SVG 1.1//EN"
 "http://www.w3.org/Graphics/SVG/1.1/DTD/svg11.dtd">
<!-- Generated by graphviz version 12.2.1 (20241206.2353)
 -->
<!-- Pages: 1 -->
<svg width="254pt" height="116pt"
 viewBox="0.00 0.00 254.25 116.00" xmlns="http://www.w3.org/2000/svg" xmlns:xlink="http://www.w3.org/1999/xlink">
<g id="graph0" class="graph" transform="scale(1 1) rotate(0) translate(4 112)">
<polygon fill="white" stroke="none" points="-4,4 -4,-112 250.25,-112 250.25,4 -4,4"/>
<!-- P -->
<g id="node1" class="node">
<title>P</title>
<ellipse fill="none" stroke="gray" cx="123.12" cy="-90" rx="33.95" ry="18"/>
<text text-anchor="middle" x="123.12" y="-84.95" font-family="Times,serif" font-size="14.00" fill="gray">parent</text>
</g>
<!-- BHnPlus2 -->
<g id="node2" class="node">
<title>BHnPlus2</title>
<polygon fill="none" stroke="black" stroke-dasharray="1,5" points="114.25,-36 0,-36 0,0 114.25,0 114.25,-36"/>
<text text-anchor="middle" x="57.12" y="-11.82" font-family="Italic" font-size="14.00">black height i + 2</text>
</g>
<!-- P&#45;&gt;BHnPlus2 -->
<g id="edge1" class="edge">
<title>P&#45;&gt;BHnPlus2</title>
<path fill="none" stroke="black" d="M108.48,-73.46C100.49,-64.99 90.39,-54.29 81.27,-44.61"/>
<polygon fill="black" stroke="black" points="84.03,-42.44 74.63,-37.56 78.94,-47.24 84.03,-42.44"/>
</g>
<!-- BHnPlus1 -->
<g id="node3" class="node">
<title>BHnPlus1</title>
<polygon fill="none" stroke="black" stroke-dasharray="1,5" points="246.25,-36 132,-36 132,0 246.25,0 246.25,-36"/>
<text text-anchor="middle" x="189.12" y="-11.82" font-family="Italic" font-size="14.00">black height i + 1</text>
</g>
<!-- P&#45;&gt;BHnPlus1 -->
<g id="edge2" class="edge">
<title>P&#45;&gt;BHnPlus1</title>
<path fill="none" stroke="black" d="M137.77,-73.46C145.76,-64.99 155.86,-54.29 164.98,-44.61"/>
<polygon fill="black" stroke="black" points="167.31,-47.24 171.62,-37.56 162.22,-42.44 167.31,-47.24"/>
</g>
</g>
</svg>
