<?xml version="1.0" encoding="UTF-8" standalone="no"?>
<!DOCTYPE svg PUBLIC "-//W3C//DTD SVG 1.1//EN"
 "http://www.w3.org/Graphics/SVG/1.1/DTD/svg11.dtd">
<!-- Generated by graphviz version 12.2.1 (20241206.2353)
 -->
<!-- Pages: 1 -->
<svg width="174pt" height="116pt"
 viewBox="0.00 0.00 173.62 116.00" xmlns="http://www.w3.org/2000/svg" xmlns:xlink="http://www.w3.org/1999/xlink">
<g id="graph0" class="graph" transform="scale(1 1) rotate(0) translate(4 112)">
<polygon fill="white" stroke="none" points="-4,4 -4,-112 169.62,-112 169.62,4 -4,4"/>
<!-- P -->
<g id="node1" class="node">
<title>P</title>
<ellipse fill="none" stroke="darkgray" cx="92.62" cy="-90" rx="33.95" ry="18"/>
<text text-anchor="middle" x="92.62" y="-84.95" font-family="Times,serif" font-size="14.00" fill="darkgray">parent</text>
</g>
<!-- BH2 -->
<g id="node2" class="node">
<title>BH2</title>
<polygon fill="none" stroke="black" stroke-dasharray="1,5" points="93.25,-36 0,-36 0,0 93.25,0 93.25,-36"/>
<text text-anchor="middle" x="46.62" y="-11.82" font-family="Italic" font-size="14.00">black height 2</text>
</g>
<!-- P&#45;&gt;BH2 -->
<g id="edge1" class="edge">
<title>P&#45;&gt;BH2</title>
<path fill="none" stroke="black" d="M81.96,-72.76C76.65,-64.7 70.11,-54.74 64.1,-45.6"/>
<polygon fill="black" stroke="black" points="67.13,-43.82 58.71,-37.39 61.28,-47.67 67.13,-43.82"/>
</g>
<!-- L -->
<g id="node3" class="node">
<title>L</title>
<ellipse fill="none" stroke="black" cx="138.62" cy="-18" rx="27" ry="18"/>
<text text-anchor="middle" x="138.62" y="-12.95" font-family="Times,serif" font-size="14.00" fill="#fffffe" fill-opacity="0.000000">L</text>
</g>
<!-- P&#45;&gt;L -->
<g id="edge2" class="edge">
<title>P&#45;&gt;L</title>
<path fill="none" stroke="black" d="M103.29,-72.76C108.89,-64.25 115.86,-53.64 122.14,-44.09"/>
<polygon fill="black" stroke="black" points="124.93,-46.21 127.5,-35.93 119.08,-42.37 124.93,-46.21"/>
</g>
</g>
</svg>
