<?xml version="1.0" encoding="UTF-8" standalone="no"?>
<!DOCTYPE svg PUBLIC "-//W3C//DTD SVG 1.1//EN"
 "http://www.w3.org/Graphics/SVG/1.1/DTD/svg11.dtd">
<!-- Generated by graphviz version 12.2.1 (20241206.2353)
 -->
<!-- Pages: 1 -->
<svg width="309pt" height="188pt"
 viewBox="0.00 0.00 309.28 188.00" xmlns="http://www.w3.org/2000/svg" xmlns:xlink="http://www.w3.org/1999/xlink">
<g id="graph0" class="graph" transform="scale(1 1) rotate(0) translate(4 184)">
<polygon fill="white" stroke="none" points="-4,4 -4,-184 305.28,-184 305.28,4 -4,4"/>
<!-- K4 -->
<g id="node1" class="node">
<title>K4</title>
<ellipse fill="none" stroke="black" cx="165.15" cy="-162" rx="55.96" ry="18"/>
<text text-anchor="middle" x="165.15" y="-156.95" font-family="Times,serif" font-size="14.00">K4 (sibling)</text>
</g>
<!-- K2 -->
<g id="node2" class="node">
<title>K2</title>
<ellipse fill="none" stroke="black" cx="86.15" cy="-90" rx="86.15" ry="18"/>
<text text-anchor="middle" x="86.15" y="-84.95" font-family="Times,serif" font-size="14.00">K2 (distantNephew)</text>
</g>
<!-- K4&#45;&gt;K2 -->
<g id="edge1" class="edge">
<title>K4&#45;&gt;K2</title>
<path fill="none" stroke="black" d="M146.83,-144.76C136.98,-136.03 124.63,-125.09 113.64,-115.36"/>
<polygon fill="black" stroke="black" points="116.14,-112.89 106.34,-108.88 111.5,-118.13 116.14,-112.89"/>
</g>
<!-- K6 -->
<g id="node3" class="node">
<title>K6</title>
<ellipse fill="none" stroke="black" cx="244.15" cy="-90" rx="53.91" ry="18"/>
<text text-anchor="middle" x="244.15" y="-84.95" font-family="Times,serif" font-size="14.00">K6 (parent)</text>
</g>
<!-- K4&#45;&gt;K6 -->
<g id="edge2" class="edge">
<title>K4&#45;&gt;K6</title>
<path fill="none" stroke="black" d="M183.48,-144.76C193.48,-135.91 206.04,-124.77 217.15,-114.93"/>
<polygon fill="black" stroke="black" points="219.36,-117.65 224.52,-108.39 214.72,-112.41 219.36,-117.65"/>
</g>
<!-- BH1 -->
<g id="node4" class="node">
<title>BH1</title>
<polygon fill="none" stroke="black" stroke-dasharray="1,5" points="143.28,-36 29.03,-36 29.03,0 143.28,0 143.28,-36"/>
<text text-anchor="middle" x="86.15" y="-11.82" font-family="Italic" font-size="14.00">black height i + 1</text>
</g>
<!-- K2&#45;&gt;BH1 -->
<g id="edge3" class="edge">
<title>K2&#45;&gt;BH1</title>
<path fill="none" stroke="black" d="M80.24,-71.7C79.49,-64.41 79.24,-55.73 79.51,-47.54"/>
<polygon fill="black" stroke="black" points="83,-47.82 80.16,-37.61 76.01,-47.36 83,-47.82"/>
</g>
<!-- K2&#45;&gt;BH1 -->
<g id="edge4" class="edge">
<title>K2&#45;&gt;BH1</title>
<path fill="none" stroke="black" d="M92.07,-71.7C92.82,-64.41 93.07,-55.73 92.8,-47.54"/>
<polygon fill="black" stroke="black" points="96.3,-47.36 92.15,-37.61 89.31,-47.82 96.3,-47.36"/>
</g>
<!-- BH2 -->
<g id="node5" class="node">
<title>BH2</title>
<polygon fill="none" stroke="black" stroke-dasharray="1,5" points="301.28,-36 187.03,-36 187.03,0 301.28,0 301.28,-36"/>
<text text-anchor="middle" x="244.15" y="-11.82" font-family="Italic" font-size="14.00">black height i + 1</text>
</g>
<!-- K6&#45;&gt;BH2 -->
<g id="edge5" class="edge">
<title>K6&#45;&gt;BH2</title>
<path fill="none" stroke="black" d="M238.24,-71.7C237.49,-64.41 237.24,-55.73 237.51,-47.54"/>
<polygon fill="black" stroke="black" points="241,-47.82 238.16,-37.61 234.01,-47.36 241,-47.82"/>
</g>
<!-- K6&#45;&gt;BH2 -->
<g id="edge6" class="edge">
<title>K6&#45;&gt;BH2</title>
<path fill="none" stroke="black" d="M250.07,-71.7C250.82,-64.41 251.07,-55.73 250.8,-47.54"/>
<polygon fill="black" stroke="black" points="254.3,-47.36 250.15,-37.61 247.31,-47.82 254.3,-47.36"/>
</g>
</g>
</svg>
