<?xml version="1.0" encoding="UTF-8" standalone="no"?>
<!DOCTYPE svg PUBLIC "-//W3C//DTD SVG 1.1//EN"
 "http://www.w3.org/Graphics/SVG/1.1/DTD/svg11.dtd">
<!-- Generated by graphviz version 12.2.1 (20241206.2353)
 -->
<!-- Pages: 1 -->
<svg width="362pt" height="260pt"
 viewBox="0.00 0.00 362.28 260.00" xmlns="http://www.w3.org/2000/svg" xmlns:xlink="http://www.w3.org/1999/xlink">
<g id="graph0" class="graph" transform="scale(1 1) rotate(0) translate(4 256)">
<polygon fill="white" stroke="none" points="-4,4 -4,-256 358.28,-256 358.28,4 -4,4"/>
<!-- K6 -->
<g id="node1" class="node">
<title>K6</title>
<ellipse fill="none" stroke="gray" cx="231.15" cy="-234" rx="53.91" ry="18"/>
<text text-anchor="middle" x="231.15" y="-228.95" font-family="Times,serif" font-size="14.00" fill="gray">K6 (parent)</text>
</g>
<!-- K4 -->
<g id="node2" class="node">
<title>K4</title>
<ellipse fill="none" stroke="black" cx="166.15" cy="-162" rx="55.96" ry="18"/>
<text text-anchor="middle" x="166.15" y="-156.95" font-family="Times,serif" font-size="14.00">K4 (sibling)</text>
</g>
<!-- K6&#45;&gt;K4 -->
<g id="edge1" class="edge">
<title>K6&#45;&gt;K4</title>
<path fill="none" stroke="black" d="M215.75,-216.41C207.82,-207.87 197.98,-197.28 189.17,-187.79"/>
<polygon fill="black" stroke="black" points="191.85,-185.53 182.48,-180.58 186.72,-190.29 191.85,-185.53"/>
</g>
<!-- BH1 -->
<g id="node3" class="node">
<title>BH1</title>
<polygon fill="none" stroke="black" stroke-dasharray="1,5" points="354.28,-180 240.03,-180 240.03,-144 354.28,-144 354.28,-180"/>
<text text-anchor="middle" x="297.15" y="-155.82" font-family="Italic" font-size="14.00">black height i + 1</text>
</g>
<!-- K6&#45;&gt;BH1 -->
<g id="edge2" class="edge">
<title>K6&#45;&gt;BH1</title>
<path fill="none" stroke="black" d="M246.8,-216.41C254.62,-208.12 264.26,-197.89 273,-188.62"/>
<polygon fill="black" stroke="black" points="275.35,-191.22 279.67,-181.55 270.26,-186.42 275.35,-191.22"/>
</g>
<!-- K2 -->
<g id="node4" class="node">
<title>K2</title>
<ellipse fill="none" stroke="red" cx="86.15" cy="-90" rx="86.15" ry="18"/>
<text text-anchor="middle" x="86.15" y="-84.95" font-family="Times,serif" font-size="14.00" fill="red">K2 (distantNephew)</text>
</g>
<!-- K4&#45;&gt;K2 -->
<g id="edge3" class="edge">
<title>K4&#45;&gt;K2</title>
<path fill="none" stroke="black" d="M147.6,-144.76C137.62,-136.03 125.11,-125.09 113.99,-115.36"/>
<polygon fill="black" stroke="black" points="116.41,-112.83 106.58,-108.87 111.8,-118.09 116.41,-112.83"/>
</g>
<!-- BH2 -->
<g id="node5" class="node">
<title>BH2</title>
<polygon fill="none" stroke="black" stroke-dasharray="1,5" points="304.28,-108 190.03,-108 190.03,-72 304.28,-72 304.28,-108"/>
<text text-anchor="middle" x="247.15" y="-83.83" font-family="Italic" font-size="14.00">black height i + 1</text>
</g>
<!-- K4&#45;&gt;BH2 -->
<g id="edge4" class="edge">
<title>K4&#45;&gt;BH2</title>
<path fill="none" stroke="black" d="M184.94,-144.76C194.9,-136.16 207.34,-125.41 218.48,-115.78"/>
<polygon fill="black" stroke="black" points="220.63,-118.55 225.91,-109.36 216.05,-113.25 220.63,-118.55"/>
</g>
<!-- BH3 -->
<g id="node6" class="node">
<title>BH3</title>
<polygon fill="none" stroke="black" stroke-dasharray="1,5" points="143.28,-36 29.03,-36 29.03,0 143.28,0 143.28,-36"/>
<text text-anchor="middle" x="86.15" y="-11.82" font-family="Italic" font-size="14.00">black height i + 1</text>
</g>
<!-- K2&#45;&gt;BH3 -->
<g id="edge5" class="edge">
<title>K2&#45;&gt;BH3</title>
<path fill="none" stroke="black" d="M80.24,-71.7C79.49,-64.41 79.24,-55.73 79.51,-47.54"/>
<polygon fill="black" stroke="black" points="83,-47.82 80.16,-37.61 76.01,-47.36 83,-47.82"/>
</g>
<!-- K2&#45;&gt;BH3 -->
<g id="edge6" class="edge">
<title>K2&#45;&gt;BH3</title>
<path fill="none" stroke="black" d="M92.07,-71.7C92.82,-64.41 93.07,-55.73 92.8,-47.54"/>
<polygon fill="black" stroke="black" points="96.3,-47.36 92.15,-37.61 89.31,-47.82 96.3,-47.36"/>
</g>
</g>
</svg>
