<?xml version="1.0" encoding="UTF-8" standalone="no"?>
<!DOCTYPE svg PUBLIC "-//W3C//DTD SVG 1.1//EN"
 "http://www.w3.org/Graphics/SVG/1.1/DTD/svg11.dtd">
<!-- Generated by graphviz version 12.2.1 (20241206.2353)
 -->
<!-- Pages: 1 -->
<svg width="441pt" height="260pt"
 viewBox="0.00 0.00 441.25 260.00" xmlns="http://www.w3.org/2000/svg" xmlns:xlink="http://www.w3.org/1999/xlink">
<g id="graph0" class="graph" transform="scale(1 1) rotate(0) translate(4 256)">
<polygon fill="white" stroke="none" points="-4,4 -4,-256 437.25,-256 437.25,4 -4,4"/>
<!-- K2 -->
<g id="node1" class="node">
<title>K2</title>
<ellipse fill="none" stroke="black" cx="137.12" cy="-234" rx="27" ry="18"/>
<text text-anchor="middle" x="137.12" y="-228.95" font-family="Times,serif" font-size="14.00">K2</text>
</g>
<!-- K1 -->
<g id="node2" class="node">
<title>K1</title>
<ellipse fill="none" stroke="black" cx="57.12" cy="-162" rx="27" ry="18"/>
<text text-anchor="middle" x="57.12" y="-156.95" font-family="Times,serif" font-size="14.00">K1</text>
</g>
<!-- K2&#45;&gt;K1 -->
<g id="edge1" class="edge">
<title>K2&#45;&gt;K1</title>
<path fill="none" stroke="black" d="M121.32,-219.17C109.92,-209.2 94.33,-195.56 81.37,-184.21"/>
<polygon fill="black" stroke="black" points="83.87,-181.75 74.04,-177.8 79.26,-187.02 83.87,-181.75"/>
</g>
<!-- K4 -->
<g id="node3" class="node">
<title>K4</title>
<ellipse fill="none" stroke="red" cx="218.12" cy="-162" rx="55.96" ry="18"/>
<text text-anchor="middle" x="218.12" y="-156.95" font-family="Times,serif" font-size="14.00" fill="red">K4 (sibling)</text>
</g>
<!-- K2&#45;&gt;K4 -->
<g id="edge2" class="edge">
<title>K2&#45;&gt;K4</title>
<path fill="none" stroke="black" d="M153.13,-219.17C163.81,-209.94 178.14,-197.55 190.63,-186.76"/>
<polygon fill="black" stroke="black" points="192.89,-189.43 198.17,-180.25 188.31,-184.14 192.89,-189.43"/>
</g>
<!-- BH1 -->
<g id="node4" class="node">
<title>BH1</title>
<polygon fill="none" stroke="black" stroke-dasharray="1,5" points="114.25,-108 0,-108 0,-72 114.25,-72 114.25,-108"/>
<text text-anchor="middle" x="57.12" y="-83.83" font-family="Italic" font-size="14.00">black height i + 1</text>
</g>
<!-- K1&#45;&gt;BH1 -->
<g id="edge3" class="edge">
<title>K1&#45;&gt;BH1</title>
<path fill="none" stroke="black" d="M51.25,-144.05C50.46,-136.68 50.21,-127.84 50.48,-119.51"/>
<polygon fill="black" stroke="black" points="53.96,-119.99 51.11,-109.79 46.97,-119.54 53.96,-119.99"/>
</g>
<!-- K1&#45;&gt;BH1 -->
<g id="edge4" class="edge">
<title>K1&#45;&gt;BH1</title>
<path fill="none" stroke="black" d="M63,-144.05C63.79,-136.68 64.04,-127.84 63.77,-119.51"/>
<polygon fill="black" stroke="black" points="67.28,-119.54 63.14,-109.79 60.29,-119.99 67.28,-119.54"/>
</g>
<!-- K3 -->
<g id="node5" class="node">
<title>K3</title>
<ellipse fill="none" stroke="black" cx="218.12" cy="-90" rx="86.15" ry="18"/>
<text text-anchor="middle" x="218.12" y="-84.95" font-family="Times,serif" font-size="14.00">K3 (distantNephew)</text>
</g>
<!-- K4&#45;&gt;K3 -->
<g id="edge5" class="edge">
<title>K4&#45;&gt;K3</title>
<path fill="none" stroke="black" d="M218.12,-143.7C218.12,-136.41 218.12,-127.73 218.12,-119.54"/>
<polygon fill="black" stroke="black" points="221.63,-119.62 218.13,-109.62 214.63,-119.62 221.63,-119.62"/>
</g>
<!-- K6 -->
<g id="node6" class="node">
<title>K6</title>
<ellipse fill="none" stroke="black" cx="376.12" cy="-90" rx="53.91" ry="18"/>
<text text-anchor="middle" x="376.12" y="-84.95" font-family="Times,serif" font-size="14.00">K6 (parent)</text>
</g>
<!-- K4&#45;&gt;K6 -->
<g id="edge6" class="edge">
<title>K4&#45;&gt;K6</title>
<path fill="none" stroke="black" d="M250.1,-146.83C274.27,-136.13 307.68,-121.32 334.02,-109.65"/>
<polygon fill="black" stroke="black" points="335.36,-112.89 343.09,-105.64 332.52,-106.49 335.36,-112.89"/>
</g>
<!-- BH2 -->
<g id="node7" class="node">
<title>BH2</title>
<polygon fill="none" stroke="black" stroke-dasharray="1,5" points="275.25,-36 161,-36 161,0 275.25,0 275.25,-36"/>
<text text-anchor="middle" x="218.12" y="-11.82" font-family="Italic" font-size="14.00">black height i + 1</text>
</g>
<!-- K3&#45;&gt;BH2 -->
<g id="edge7" class="edge">
<title>K3&#45;&gt;BH2</title>
<path fill="none" stroke="black" d="M212.21,-71.7C211.46,-64.41 211.21,-55.73 211.48,-47.54"/>
<polygon fill="black" stroke="black" points="214.97,-47.82 212.13,-37.61 207.98,-47.36 214.97,-47.82"/>
</g>
<!-- K3&#45;&gt;BH2 -->
<g id="edge8" class="edge">
<title>K3&#45;&gt;BH2</title>
<path fill="none" stroke="black" d="M224.04,-71.7C224.79,-64.41 225.04,-55.73 224.77,-47.54"/>
<polygon fill="black" stroke="black" points="228.27,-47.36 224.12,-37.61 221.28,-47.82 228.27,-47.36"/>
</g>
<!-- BH3 -->
<g id="node8" class="node">
<title>BH3</title>
<polygon fill="none" stroke="black" stroke-dasharray="1,5" points="433.25,-36 319,-36 319,0 433.25,0 433.25,-36"/>
<text text-anchor="middle" x="376.12" y="-11.82" font-family="Italic" font-size="14.00">black height i + 1</text>
</g>
<!-- K6&#45;&gt;BH3 -->
<g id="edge9" class="edge">
<title>K6&#45;&gt;BH3</title>
<path fill="none" stroke="black" d="M370.21,-71.7C369.46,-64.41 369.21,-55.73 369.48,-47.54"/>
<polygon fill="black" stroke="black" points="372.97,-47.82 370.13,-37.61 365.98,-47.36 372.97,-47.82"/>
</g>
<!-- K6&#45;&gt;BH3 -->
<g id="edge10" class="edge">
<title>K6&#45;&gt;BH3</title>
<path fill="none" stroke="black" d="M382.04,-71.7C382.79,-64.41 383.04,-55.73 382.77,-47.54"/>
<polygon fill="black" stroke="black" points="386.27,-47.36 382.12,-37.61 379.28,-47.82 386.27,-47.36"/>
</g>
</g>
</svg>
