<?xml version="1.0" encoding="UTF-8" standalone="no"?>
<!DOCTYPE svg PUBLIC "-//W3C//DTD SVG 1.1//EN"
 "http://www.w3.org/Graphics/SVG/1.1/DTD/svg11.dtd">
<!-- Generated by graphviz version 12.2.1 (20241206.2353)
 -->
<!-- Pages: 1 -->
<svg width="251pt" height="260pt"
 viewBox="0.00 0.00 250.50 260.00" xmlns="http://www.w3.org/2000/svg" xmlns:xlink="http://www.w3.org/1999/xlink">
<g id="graph0" class="graph" transform="scale(1 1) rotate(0) translate(4 256)">
<polygon fill="white" stroke="none" points="-4,4 -4,-256 246.5,-256 246.5,4 -4,4"/>
<!-- K1 -->
<g id="node1" class="node">
<title>K1</title>
<ellipse fill="none" stroke="darkgray" cx="86" cy="-162" rx="48.79" ry="18"/>
<text text-anchor="middle" x="86" y="-156.95" font-family="Times,serif" font-size="14.00" fill="darkgray">K1 (node)</text>
</g>
<!-- LTK1 -->
<g id="node2" class="node">
<title>LTK1</title>
<polygon fill="none" stroke="black" stroke-dasharray="1,5" points="58,-108 0,-108 0,-72 58,-72 58,-108"/>
<text text-anchor="middle" x="29" y="-83.83" font-family="Italic" font-size="14.00">K &lt; K1</text>
</g>
<!-- K1&#45;&gt;LTK1 -->
<g id="edge1" class="edge">
<title>K1&#45;&gt;LTK1</title>
<path fill="none" stroke="black" d="M72.49,-144.41C65.87,-136.28 57.75,-126.31 50.32,-117.18"/>
<polygon fill="black" stroke="black" points="53.19,-115.16 44.16,-109.62 47.76,-119.58 53.19,-115.16"/>
</g>
<!-- K2 -->
<g id="node3" class="node">
<title>K2</title>
<ellipse fill="none" stroke="darkgray" cx="143" cy="-90" rx="66.71" ry="18"/>
<text text-anchor="middle" x="143" y="-84.95" font-family="Times,serif" font-size="14.00" fill="darkgray">K2 (newChild)</text>
</g>
<!-- K1&#45;&gt;K2 -->
<g id="edge2" class="edge">
<title>K1&#45;&gt;K2</title>
<path fill="none" stroke="black" d="M99.51,-144.41C106.22,-136.16 114.49,-126.01 122.01,-116.78"/>
<polygon fill="black" stroke="black" points="124.64,-119.09 128.24,-109.13 119.21,-114.67 124.64,-119.09"/>
</g>
<!-- LTK2GTK1 -->
<g id="node6" class="node">
<title>LTK2GTK1</title>
<polygon fill="none" stroke="black" stroke-dasharray="1,5" points="133.5,-36 42.5,-36 42.5,0 133.5,0 133.5,-36"/>
<text text-anchor="middle" x="88" y="-11.82" font-family="Italic" font-size="14.00">K1 &lt; K &lt; K2</text>
</g>
<!-- K2&#45;&gt;LTK2GTK1 -->
<g id="edge5" class="edge">
<title>K2&#45;&gt;LTK2GTK1</title>
<path fill="none" stroke="black" d="M129.69,-72.05C123.36,-64.01 115.66,-54.2 108.61,-45.23"/>
<polygon fill="black" stroke="black" points="111.44,-43.17 102.51,-37.47 105.93,-47.49 111.44,-43.17"/>
</g>
<!-- GTK2LTK3 -->
<g id="node7" class="node">
<title>GTK2LTK3</title>
<polygon fill="none" stroke="black" stroke-dasharray="1,5" points="242.5,-36 151.5,-36 151.5,0 242.5,0 242.5,-36"/>
<text text-anchor="middle" x="197" y="-11.82" font-family="Italic" font-size="14.00">K2 &lt; K &lt; K3</text>
</g>
<!-- K2&#45;&gt;GTK2LTK3 -->
<g id="edge6" class="edge">
<title>K2&#45;&gt;GTK2LTK3</title>
<path fill="none" stroke="black" d="M156.07,-72.05C162.28,-64.01 169.84,-54.2 176.77,-45.23"/>
<polygon fill="black" stroke="black" points="179.41,-47.53 182.75,-37.47 173.87,-43.25 179.41,-47.53"/>
</g>
<!-- K3 -->
<g id="node4" class="node">
<title>K3</title>
<ellipse fill="none" stroke="darkgray" cx="134" cy="-234" rx="64.15" ry="18"/>
<text text-anchor="middle" x="134" y="-228.95" font-family="Times,serif" font-size="14.00" fill="darkgray">K3 (newRoot)</text>
</g>
<!-- K3&#45;&gt;K1 -->
<g id="edge3" class="edge">
<title>K3&#45;&gt;K1</title>
<path fill="none" stroke="black" d="M122.38,-216.05C116.84,-207.97 110.08,-198.12 103.91,-189.11"/>
<polygon fill="black" stroke="black" points="106.91,-187.31 98.37,-181.04 101.14,-191.26 106.91,-187.31"/>
</g>
<!-- GTK3 -->
<g id="node5" class="node">
<title>GTK3</title>
<polygon fill="none" stroke="black" stroke-dasharray="1,5" points="211,-180 153,-180 153,-144 211,-144 211,-180"/>
<text text-anchor="middle" x="182" y="-155.82" font-family="Italic" font-size="14.00">K &gt; K3</text>
</g>
<!-- K3&#45;&gt;GTK3 -->
<g id="edge4" class="edge">
<title>K3&#45;&gt;GTK3</title>
<path fill="none" stroke="black" d="M145.62,-216.05C151.08,-208.09 157.72,-198.41 163.82,-189.51"/>
<polygon fill="black" stroke="black" points="166.53,-191.75 169.3,-181.52 160.76,-187.79 166.53,-191.75"/>
</g>
</g>
</svg>
