<?xml version="1.0" encoding="UTF-8" standalone="no"?>
<!DOCTYPE svg PUBLIC "-//W3C//DTD SVG 1.1//EN"
 "http://www.w3.org/Graphics/SVG/1.1/DTD/svg11.dtd">
<!-- Generated by graphviz version 12.2.1 (20241206.2353)
 -->
<!-- Pages: 1 -->
<svg width="319pt" height="260pt"
 viewBox="0.00 0.00 319.46 260.00" xmlns="http://www.w3.org/2000/svg" xmlns:xlink="http://www.w3.org/1999/xlink">
<g id="graph0" class="graph" transform="scale(1 1) rotate(0) translate(4 256)">
<polygon fill="white" stroke="none" points="-4,4 -4,-256 315.46,-256 315.46,4 -4,4"/>
<!-- K2 -->
<g id="node1" class="node">
<title>K2</title>
<ellipse fill="none" stroke="black" cx="111.84" cy="-234" rx="74.89" ry="18"/>
<text text-anchor="middle" x="111.84" y="-228.95" font-family="Times,serif" font-size="14.00">K2 (grandparent)</text>
</g>
<!-- K1 -->
<g id="node2" class="node">
<title>K1</title>
<ellipse fill="none" stroke="black" cx="50.84" cy="-162" rx="50.84" ry="18"/>
<text text-anchor="middle" x="50.84" y="-156.95" font-family="Times,serif" font-size="14.00">K1 (uncle)</text>
</g>
<!-- K2&#45;&gt;K1 -->
<g id="edge1" class="edge">
<title>K2&#45;&gt;K1</title>
<path fill="none" stroke="black" d="M97.07,-216.05C89.7,-207.59 80.63,-197.19 72.49,-187.84"/>
<polygon fill="black" stroke="black" points="75.25,-185.69 66.04,-180.45 69.98,-190.29 75.25,-185.69"/>
</g>
<!-- K3 -->
<g id="node3" class="node">
<title>K3</title>
<ellipse fill="none" stroke="red" cx="176.84" cy="-162" rx="53.91" ry="18"/>
<text text-anchor="middle" x="176.84" y="-156.95" font-family="Times,serif" font-size="14.00" fill="red">K3 (parent)</text>
</g>
<!-- K2&#45;&gt;K3 -->
<g id="edge2" class="edge">
<title>K2&#45;&gt;K3</title>
<path fill="none" stroke="black" d="M127.57,-216.05C135.51,-207.5 145.29,-196.97 154.04,-187.56"/>
<polygon fill="black" stroke="black" points="156.43,-190.13 160.67,-180.42 151.3,-185.36 156.43,-190.13"/>
</g>
<!-- BHn -->
<g id="node7" class="node">
<title>BHn</title>
<polygon fill="none" stroke="black" stroke-dasharray="1,5" points="97.46,-108 4.21,-108 4.21,-72 97.46,-72 97.46,-108"/>
<text text-anchor="middle" x="50.84" y="-83.83" font-family="Italic" font-size="14.00">black height n</text>
</g>
<!-- K1&#45;&gt;BHn -->
<g id="edge6" class="edge">
<title>K1&#45;&gt;BHn</title>
<path fill="none" stroke="black" d="M44.92,-143.7C44.17,-136.41 43.93,-127.73 44.19,-119.54"/>
<polygon fill="black" stroke="black" points="47.68,-119.82 44.85,-109.61 40.7,-119.36 47.68,-119.82"/>
</g>
<!-- K1&#45;&gt;BHn -->
<g id="edge7" class="edge">
<title>K1&#45;&gt;BHn</title>
<path fill="none" stroke="black" d="M56.76,-143.7C57.51,-136.41 57.75,-127.73 57.49,-119.54"/>
<polygon fill="black" stroke="black" points="60.98,-119.36 56.83,-109.61 54,-119.82 60.98,-119.36"/>
</g>
<!-- BHnPlus1 -->
<g id="node4" class="node">
<title>BHnPlus1</title>
<polygon fill="none" stroke="black" stroke-dasharray="1,5" points="311.46,-36 194.21,-36 194.21,0 311.46,0 311.46,-36"/>
<text text-anchor="middle" x="252.84" y="-11.82" font-family="Italic" font-size="14.00">black height n + 1</text>
</g>
<!-- K3&#45;&gt;BHnPlus1 -->
<g id="edge3" class="edge">
<title>K3&#45;&gt;BHnPlus1</title>
<path fill="none" stroke="black" d="M162.41,-144.31C148.16,-125.69 130.42,-95.13 144.84,-72 153.95,-57.39 168.39,-46.69 183.78,-38.9"/>
<polygon fill="black" stroke="black" points="185.01,-42.19 192.62,-34.82 182.07,-35.84 185.01,-42.19"/>
</g>
<!-- X -->
<g id="node5" class="node">
<title>X</title>
<ellipse fill="none" stroke="none" cx="180.84" cy="-90" rx="27" ry="18"/>
<text text-anchor="middle" x="180.84" y="-84.95" font-family="Times,serif" font-size="14.00" fill="#fffffe" fill-opacity="0.000000">X</text>
</g>
<!-- K3&#45;&gt;X -->
<g id="edge4" class="edge">
<title>K3&#45;&gt;X</title>
<path fill="none" stroke="none" d="M177.83,-143.7C178.24,-136.41 178.74,-127.73 179.21,-119.54"/>
<polygon fill="none" stroke="none" points="182.7,-119.8 179.78,-109.62 175.71,-119.4 182.7,-119.8"/>
</g>
<!-- K4 -->
<g id="node6" class="node">
<title>K4</title>
<ellipse fill="none" stroke="red" cx="252.84" cy="-90" rx="27" ry="18"/>
<text text-anchor="middle" x="252.84" y="-84.95" font-family="Times,serif" font-size="14.00" fill="red">K4</text>
</g>
<!-- K3&#45;&gt;K4 -->
<g id="edge5" class="edge">
<title>K3&#45;&gt;K4</title>
<path fill="none" stroke="black" d="M194.47,-144.76C204.71,-135.33 217.75,-123.32 228.91,-113.04"/>
<polygon fill="black" stroke="black" points="231.27,-115.62 236.25,-106.28 226.53,-110.48 231.27,-115.62"/>
</g>
<!-- K4&#45;&gt;BHnPlus1 -->
<g id="edge8" class="edge">
<title>K4&#45;&gt;BHnPlus1</title>
<path fill="none" stroke="black" d="M246.96,-72.05C246.18,-64.68 245.92,-55.84 246.19,-47.51"/>
<polygon fill="black" stroke="black" points="249.67,-47.99 246.83,-37.79 242.68,-47.54 249.67,-47.99"/>
</g>
<!-- K4&#45;&gt;BHnPlus1 -->
<g id="edge9" class="edge">
<title>K4&#45;&gt;BHnPlus1</title>
<path fill="none" stroke="black" d="M258.72,-72.05C259.5,-64.68 259.76,-55.84 259.49,-47.51"/>
<polygon fill="black" stroke="black" points="262.99,-47.54 258.85,-37.79 256.01,-47.99 262.99,-47.54"/>
</g>
</g>
</svg>
