<?xml version="1.0" encoding="UTF-8" standalone="no"?>
<!DOCTYPE svg PUBLIC "-//W3C//DTD SVG 1.1//EN"
 "http://www.w3.org/Graphics/SVG/1.1/DTD/svg11.dtd">
<!-- Generated by graphviz version 12.2.1 (20241206.2353)
 -->
<!-- Pages: 1 -->
<svg width="308pt" height="260pt"
 viewBox="0.00 0.00 308.08 260.00" xmlns="http://www.w3.org/2000/svg" xmlns:xlink="http://www.w3.org/1999/xlink">
<g id="graph0" class="graph" transform="scale(1 1) rotate(0) translate(4 256)">
<polygon fill="white" stroke="none" points="-4,4 -4,-256 304.08,-256 304.08,4 -4,4"/>
<!-- K2 -->
<g id="node1" class="node">
<title>K2</title>
<ellipse fill="none" stroke="black" cx="111.84" cy="-234" rx="74.89" ry="18"/>
<text text-anchor="middle" x="111.84" y="-228.95" font-family="Times,serif" font-size="14.00">K2 (grandparent)</text>
</g>
<!-- K1 -->
<g id="node2" class="node">
<title>K1</title>
<ellipse fill="none" stroke="black" cx="50.84" cy="-162" rx="50.84" ry="18"/>
<text text-anchor="middle" x="50.84" y="-156.95" font-family="Times,serif" font-size="14.00">K1 (uncle)</text>
</g>
<!-- K2&#45;&gt;K1 -->
<g id="edge1" class="edge">
<title>K2&#45;&gt;K1</title>
<path fill="none" stroke="black" d="M97.07,-216.05C89.7,-207.59 80.63,-197.19 72.49,-187.84"/>
<polygon fill="black" stroke="black" points="75.25,-185.69 66.04,-180.45 69.98,-190.29 75.25,-185.69"/>
</g>
<!-- K4 -->
<g id="node3" class="node">
<title>K4</title>
<ellipse fill="none" stroke="red" cx="215.84" cy="-162" rx="53.91" ry="18"/>
<text text-anchor="middle" x="215.84" y="-156.95" font-family="Times,serif" font-size="14.00" fill="red">K4 (parent)</text>
</g>
<!-- K2&#45;&gt;K4 -->
<g id="edge2" class="edge">
<title>K2&#45;&gt;K4</title>
<path fill="none" stroke="black" d="M136.22,-216.59C150.21,-207.17 167.95,-195.23 183.14,-185.01"/>
<polygon fill="black" stroke="black" points="185.08,-187.92 191.42,-179.43 181.17,-182.11 185.08,-187.92"/>
</g>
<!-- BHn -->
<g id="node6" class="node">
<title>BHn</title>
<polygon fill="none" stroke="black" stroke-dasharray="1,5" points="97.46,-108 4.21,-108 4.21,-72 97.46,-72 97.46,-108"/>
<text text-anchor="middle" x="50.84" y="-83.83" font-family="Italic" font-size="14.00">black height n</text>
</g>
<!-- K1&#45;&gt;BHn -->
<g id="edge5" class="edge">
<title>K1&#45;&gt;BHn</title>
<path fill="none" stroke="black" d="M44.92,-143.7C44.17,-136.41 43.93,-127.73 44.19,-119.54"/>
<polygon fill="black" stroke="black" points="47.68,-119.82 44.85,-109.61 40.7,-119.36 47.68,-119.82"/>
</g>
<!-- K1&#45;&gt;BHn -->
<g id="edge6" class="edge">
<title>K1&#45;&gt;BHn</title>
<path fill="none" stroke="black" d="M56.76,-143.7C57.51,-136.41 57.75,-127.73 57.49,-119.54"/>
<polygon fill="black" stroke="black" points="60.98,-119.36 56.83,-109.61 54,-119.82 60.98,-119.36"/>
</g>
<!-- K3 -->
<g id="node4" class="node">
<title>K3</title>
<ellipse fill="none" stroke="red" cx="163.84" cy="-90" rx="48.79" ry="18"/>
<text text-anchor="middle" x="163.84" y="-84.95" font-family="Times,serif" font-size="14.00" fill="red">K3 (node)</text>
</g>
<!-- K4&#45;&gt;K3 -->
<g id="edge3" class="edge">
<title>K4&#45;&gt;K3</title>
<path fill="none" stroke="black" d="M203.25,-144.05C197.18,-135.89 189.77,-125.91 183.02,-116.82"/>
<polygon fill="black" stroke="black" points="185.99,-114.94 177.21,-109 180.37,-119.12 185.99,-114.94"/>
</g>
<!-- X -->
<g id="node5" class="node">
<title>X</title>
<ellipse fill="none" stroke="none" cx="257.84" cy="-90" rx="27" ry="18"/>
<text text-anchor="middle" x="257.84" y="-84.95" font-family="Times,serif" font-size="14.00" fill="#fffffe" fill-opacity="0.000000">X</text>
</g>
<!-- K4&#45;&gt;X -->
<g id="edge4" class="edge">
<title>K4&#45;&gt;X</title>
<path fill="none" stroke="none" d="M226.01,-144.05C230.95,-135.82 236.99,-125.76 242.47,-116.61"/>
<polygon fill="none" stroke="none" points="245.42,-118.5 247.56,-108.13 239.42,-114.9 245.42,-118.5"/>
</g>
<!-- BHnPlus1 -->
<g id="node7" class="node">
<title>BHnPlus1</title>
<polygon fill="none" stroke="black" stroke-dasharray="1,5" points="222.46,-36 105.21,-36 105.21,0 222.46,0 222.46,-36"/>
<text text-anchor="middle" x="163.84" y="-11.82" font-family="Italic" font-size="14.00">black height n + 1</text>
</g>
<!-- K4&#45;&gt;BHnPlus1 -->
<g id="edge7" class="edge">
<title>K4&#45;&gt;BHnPlus1</title>
<path fill="none" stroke="black" d="M249.09,-147.57C265.74,-138.94 284.34,-125.94 293.84,-108 301.33,-93.86 302.77,-85.28 293.84,-72 280.05,-51.48 256.77,-38.9 233.7,-31.19"/>
<polygon fill="black" stroke="black" points="234.82,-27.88 224.24,-28.32 232.79,-34.57 234.82,-27.88"/>
</g>
<!-- K3&#45;&gt;BHnPlus1 -->
<g id="edge8" class="edge">
<title>K3&#45;&gt;BHnPlus1</title>
<path fill="none" stroke="black" d="M157.92,-71.7C157.17,-64.41 156.93,-55.73 157.19,-47.54"/>
<polygon fill="black" stroke="black" points="160.68,-47.82 157.85,-37.61 153.7,-47.36 160.68,-47.82"/>
</g>
<!-- K3&#45;&gt;BHnPlus1 -->
<g id="edge9" class="edge">
<title>K3&#45;&gt;BHnPlus1</title>
<path fill="none" stroke="black" d="M169.76,-71.7C170.51,-64.41 170.75,-55.73 170.49,-47.54"/>
<polygon fill="black" stroke="black" points="173.98,-47.36 169.83,-37.61 167,-47.82 173.98,-47.36"/>
</g>
</g>
</svg>
