<?xml version="1.0" encoding="UTF-8" standalone="no"?>
<!DOCTYPE svg PUBLIC "-//W3C//DTD SVG 1.1//EN"
 "http://www.w3.org/Graphics/SVG/1.1/DTD/svg11.dtd">
<!-- Generated by graphviz version 12.2.1 (20241206.2353)
 -->
<!-- Pages: 1 -->
<svg width="307pt" height="260pt"
 viewBox="0.00 0.00 306.84 260.00" xmlns="http://www.w3.org/2000/svg" xmlns:xlink="http://www.w3.org/1999/xlink">
<g id="graph0" class="graph" transform="scale(1 1) rotate(0) translate(4 256)">
<polygon fill="white" stroke="none" points="-4,4 -4,-256 302.84,-256 302.84,4 -4,4"/>
<!-- K2 -->
<g id="node1" class="node">
<title>K2</title>
<ellipse fill="none" stroke="black" cx="111.84" cy="-234" rx="74.89" ry="18"/>
<text text-anchor="middle" x="111.84" y="-228.95" font-family="Times,serif" font-size="14.00">K2 (grandparent)</text>
</g>
<!-- K1 -->
<g id="node2" class="node">
<title>K1</title>
<ellipse fill="none" stroke="red" cx="50.84" cy="-162" rx="50.84" ry="18"/>
<text text-anchor="middle" x="50.84" y="-156.95" font-family="Times,serif" font-size="14.00" fill="red">K1 (uncle)</text>
</g>
<!-- K2&#45;&gt;K1 -->
<g id="edge1" class="edge">
<title>K2&#45;&gt;K1</title>
<path fill="none" stroke="black" d="M97.07,-216.05C89.7,-207.59 80.63,-197.19 72.49,-187.84"/>
<polygon fill="black" stroke="black" points="75.25,-185.69 66.04,-180.45 69.98,-190.29 75.25,-185.69"/>
</g>
<!-- K3 -->
<g id="node3" class="node">
<title>K3</title>
<ellipse fill="none" stroke="red" cx="186.84" cy="-162" rx="53.91" ry="18"/>
<text text-anchor="middle" x="186.84" y="-156.95" font-family="Times,serif" font-size="14.00" fill="red">K3 (parent)</text>
</g>
<!-- K2&#45;&gt;K3 -->
<g id="edge2" class="edge">
<title>K2&#45;&gt;K3</title>
<path fill="none" stroke="black" d="M130,-216.05C139.34,-207.33 150.9,-196.54 161.15,-186.98"/>
<polygon fill="black" stroke="black" points="163.34,-189.72 168.26,-180.34 158.56,-184.6 163.34,-189.72"/>
</g>
<!-- BHn -->
<g id="node4" class="node">
<title>BHn</title>
<polygon fill="none" stroke="black" stroke-dasharray="1,5" points="163.46,-36 70.21,-36 70.21,0 163.46,0 163.46,-36"/>
<text text-anchor="middle" x="116.84" y="-11.82" font-family="Italic" font-size="14.00">black height n</text>
</g>
<!-- K1&#45;&gt;BHn -->
<g id="edge8" class="edge">
<title>K1&#45;&gt;BHn</title>
<path fill="none" stroke="black" d="M40.89,-143.95C35.66,-125.28 33.69,-94.94 44.84,-72 50.29,-60.78 59.35,-51.05 69.28,-43.1"/>
<polygon fill="black" stroke="black" points="71.34,-45.93 77.34,-37.2 67.21,-40.28 71.34,-45.93"/>
</g>
<!-- K1&#45;&gt;BHn -->
<g id="edge9" class="edge">
<title>K1&#45;&gt;BHn</title>
<path fill="none" stroke="black" d="M54.06,-143.61C53.64,-124.91 51.75,-94.8 62.84,-72 68.24,-60.9 77.17,-51.25 86.29,-43.34"/>
<polygon fill="black" stroke="black" points="88.23,-46.27 93.8,-37.26 83.82,-40.83 88.23,-46.27"/>
</g>
<!-- X2 -->
<g id="node7" class="node">
<title>X2</title>
<ellipse fill="none" stroke="none" cx="89.84" cy="-90" rx="27" ry="18"/>
<text text-anchor="middle" x="89.84" y="-84.95" font-family="Times,serif" font-size="14.00" fill="#fffffe" fill-opacity="0.000000">X2</text>
</g>
<!-- K1&#45;&gt;X2 -->
<g id="edge6" class="edge">
<title>K1&#45;&gt;X2</title>
<path fill="none" stroke="none" d="M60.28,-144.05C64.75,-136.03 70.2,-126.26 75.19,-117.3"/>
<polygon fill="none" stroke="none" points="78.21,-119.07 80.02,-108.63 72.09,-115.66 78.21,-119.07"/>
</g>
<!-- K3&#45;&gt;BHn -->
<g id="edge3" class="edge">
<title>K3&#45;&gt;BHn</title>
<path fill="none" stroke="black" d="M178.4,-143.87C166.47,-119.67 144.55,-75.21 130.34,-46.39"/>
<polygon fill="black" stroke="black" points="133.54,-44.97 125.98,-37.55 127.26,-48.06 133.54,-44.97"/>
</g>
<!-- X1 -->
<g id="node5" class="node">
<title>X1</title>
<ellipse fill="none" stroke="none" cx="199.84" cy="-90" rx="27" ry="18"/>
<text text-anchor="middle" x="199.84" y="-84.95" font-family="Times,serif" font-size="14.00" fill="#fffffe" fill-opacity="0.000000">X1</text>
</g>
<!-- K3&#45;&gt;X1 -->
<g id="edge4" class="edge">
<title>K3&#45;&gt;X1</title>
<path fill="none" stroke="none" d="M190.05,-143.7C191.42,-136.32 193.06,-127.52 194.59,-119.25"/>
<polygon fill="none" stroke="none" points="198,-120.06 196.39,-109.59 191.12,-118.79 198,-120.06"/>
</g>
<!-- K4 -->
<g id="node6" class="node">
<title>K4</title>
<ellipse fill="none" stroke="red" cx="271.84" cy="-90" rx="27" ry="18"/>
<text text-anchor="middle" x="271.84" y="-84.95" font-family="Times,serif" font-size="14.00" fill="red">K4</text>
</g>
<!-- K3&#45;&gt;K4 -->
<g id="edge5" class="edge">
<title>K3&#45;&gt;K4</title>
<path fill="none" stroke="black" d="M206.55,-144.76C218.47,-134.95 233.78,-122.34 246.58,-111.8"/>
<polygon fill="black" stroke="black" points="248.71,-114.58 254.21,-105.52 244.26,-109.18 248.71,-114.58"/>
</g>
<!-- K4&#45;&gt;BHn -->
<g id="edge10" class="edge">
<title>K4&#45;&gt;BHn</title>
<path fill="none" stroke="black" d="M247.74,-81.48C240.82,-78.49 233.5,-75.05 226.84,-72 204.43,-61.72 179.53,-50.59 159.02,-41.19"/>
<polygon fill="black" stroke="black" points="160.65,-38.09 150.11,-37.08 157.72,-44.44 160.65,-38.09"/>
</g>
<!-- K4&#45;&gt;BHn -->
<g id="edge11" class="edge">
<title>K4&#45;&gt;BHn</title>
<path fill="none" stroke="black" d="M253.69,-76.13C250.74,-74.72 247.73,-73.33 244.84,-72 221.95,-61.5 196.45,-50.1 174.21,-40.58"/>
<polygon fill="black" stroke="black" points="175.88,-37.49 165.31,-36.8 173.14,-43.93 175.88,-37.49"/>
</g>
<!-- X2&#45;&gt;BHn -->
<g id="edge7" class="edge">
<title>X2&#45;&gt;BHn</title>
<path fill="none" stroke="none" d="M96.38,-72.05C99.28,-64.52 102.79,-55.44 106.06,-46.94"/>
<polygon fill="none" stroke="none" points="109.3,-48.28 109.63,-37.69 102.77,-45.76 109.3,-48.28"/>
</g>
</g>
</svg>
