<?xml version="1.0" encoding="UTF-8" standalone="no"?>
<!DOCTYPE svg PUBLIC "-//W3C//DTD SVG 1.1//EN"
 "http://www.w3.org/Graphics/SVG/1.1/DTD/svg11.dtd">
<!-- Generated by graphviz version 12.2.1 (20241206.2353)
 -->
<!-- Pages: 1 -->
<svg width="325pt" height="260pt"
 viewBox="0.00 0.00 325.46 260.00" xmlns="http://www.w3.org/2000/svg" xmlns:xlink="http://www.w3.org/1999/xlink">
<g id="graph0" class="graph" transform="scale(1 1) rotate(0) translate(4 256)">
<polygon fill="white" stroke="none" points="-4,4 -4,-256 321.46,-256 321.46,4 -4,4"/>
<!-- K3 -->
<g id="node1" class="node">
<title>K3</title>
<ellipse fill="none" stroke="black" cx="198.84" cy="-234" rx="53.91" ry="18"/>
<text text-anchor="middle" x="198.84" y="-228.95" font-family="Times,serif" font-size="14.00">K3 (parent)</text>
</g>
<!-- K2 -->
<g id="node2" class="node">
<title>K2</title>
<ellipse fill="none" stroke="red" cx="138.84" cy="-162" rx="74.89" ry="18"/>
<text text-anchor="middle" x="138.84" y="-156.95" font-family="Times,serif" font-size="14.00" fill="red">K2 (grandparent)</text>
</g>
<!-- K3&#45;&gt;K2 -->
<g id="edge1" class="edge">
<title>K3&#45;&gt;K2</title>
<path fill="none" stroke="black" d="M184.62,-216.41C177.48,-208.08 168.67,-197.8 160.69,-188.49"/>
<polygon fill="black" stroke="black" points="163.52,-186.42 154.36,-181.11 158.21,-190.98 163.52,-186.42"/>
</g>
<!-- K4 -->
<g id="node5" class="node">
<title>K4</title>
<ellipse fill="none" stroke="red" cx="258.84" cy="-162" rx="27" ry="18"/>
<text text-anchor="middle" x="258.84" y="-156.95" font-family="Times,serif" font-size="14.00" fill="red">K4</text>
</g>
<!-- K3&#45;&gt;K4 -->
<g id="edge4" class="edge">
<title>K3&#45;&gt;K4</title>
<path fill="none" stroke="black" d="M213.06,-216.41C220.7,-207.5 230.25,-196.35 238.65,-186.56"/>
<polygon fill="black" stroke="black" points="241.11,-189.06 244.96,-179.19 235.8,-184.5 241.11,-189.06"/>
</g>
<!-- K1 -->
<g id="node3" class="node">
<title>K1</title>
<ellipse fill="none" stroke="black" cx="50.84" cy="-90" rx="50.84" ry="18"/>
<text text-anchor="middle" x="50.84" y="-84.95" font-family="Times,serif" font-size="14.00">K1 (uncle)</text>
</g>
<!-- K2&#45;&gt;K1 -->
<g id="edge2" class="edge">
<title>K2&#45;&gt;K1</title>
<path fill="none" stroke="black" d="M117.98,-144.41C106.53,-135.3 92.16,-123.87 79.65,-113.92"/>
<polygon fill="black" stroke="black" points="82.13,-111.42 72.12,-107.93 77.77,-116.89 82.13,-111.42"/>
</g>
<!-- X -->
<g id="node4" class="node">
<title>X</title>
<ellipse fill="none" stroke="white" cx="146.84" cy="-90" rx="27" ry="18"/>
<text text-anchor="middle" x="146.84" y="-84.95" font-family="Times,serif" font-size="14.00" fill="white">X</text>
</g>
<!-- K2&#45;&gt;X -->
<g id="edge3" class="edge">
<title>K2&#45;&gt;X</title>
<path fill="none" stroke="white" d="M140.82,-143.7C141.65,-136.41 142.64,-127.73 143.58,-119.54"/>
<polygon fill="white" stroke="white" points="147.05,-119.94 144.71,-109.61 140.1,-119.15 147.05,-119.94"/>
</g>
<!-- BHnPlus1 -->
<g id="node7" class="node">
<title>BHnPlus1</title>
<polygon fill="none" stroke="black" stroke-dasharray="1,5" points="317.46,-108 200.21,-108 200.21,-72 317.46,-72 317.46,-108"/>
<text text-anchor="middle" x="258.84" y="-83.83" font-family="Italic" font-size="14.00">black height n + 1</text>
</g>
<!-- K2&#45;&gt;BHnPlus1 -->
<g id="edge7" class="edge">
<title>K2&#45;&gt;BHnPlus1</title>
<path fill="none" stroke="black" d="M166.37,-144.94C181.99,-135.83 201.81,-124.27 219.09,-114.19"/>
<polygon fill="black" stroke="black" points="220.73,-117.28 227.61,-109.22 217.21,-111.23 220.73,-117.28"/>
</g>
<!-- BHn -->
<g id="node6" class="node">
<title>BHn</title>
<polygon fill="none" stroke="black" stroke-dasharray="1,5" points="97.46,-36 4.21,-36 4.21,0 97.46,0 97.46,-36"/>
<text text-anchor="middle" x="50.84" y="-11.82" font-family="Italic" font-size="14.00">black height n</text>
</g>
<!-- K1&#45;&gt;BHn -->
<g id="edge5" class="edge">
<title>K1&#45;&gt;BHn</title>
<path fill="none" stroke="black" d="M44.92,-71.7C44.17,-64.41 43.93,-55.73 44.19,-47.54"/>
<polygon fill="black" stroke="black" points="47.68,-47.82 44.85,-37.61 40.7,-47.36 47.68,-47.82"/>
</g>
<!-- K1&#45;&gt;BHn -->
<g id="edge6" class="edge">
<title>K1&#45;&gt;BHn</title>
<path fill="none" stroke="black" d="M56.76,-71.7C57.51,-64.41 57.75,-55.73 57.49,-47.54"/>
<polygon fill="black" stroke="black" points="60.98,-47.36 56.83,-37.61 54,-47.82 60.98,-47.36"/>
</g>
<!-- K4&#45;&gt;BHnPlus1 -->
<g id="edge8" class="edge">
<title>K4&#45;&gt;BHnPlus1</title>
<path fill="none" stroke="black" d="M252.96,-144.05C252.18,-136.68 251.92,-127.84 252.19,-119.51"/>
<polygon fill="black" stroke="black" points="255.67,-119.99 252.83,-109.79 248.68,-119.54 255.67,-119.99"/>
</g>
<!-- K4&#45;&gt;BHnPlus1 -->
<g id="edge9" class="edge">
<title>K4&#45;&gt;BHnPlus1</title>
<path fill="none" stroke="black" d="M264.72,-144.05C265.5,-136.68 265.76,-127.84 265.49,-119.51"/>
<polygon fill="black" stroke="black" points="268.99,-119.54 264.85,-109.79 262.01,-119.99 268.99,-119.54"/>
</g>
</g>
</svg>
