<?xml version="1.0" encoding="UTF-8" standalone="no"?>
<!DOCTYPE svg PUBLIC "-//W3C//DTD SVG 1.1//EN"
 "http://www.w3.org/Graphics/SVG/1.1/DTD/svg11.dtd">
<!-- Generated by graphviz version 12.2.1 (20241206.2353)
 -->
<!-- Pages: 1 -->
<svg width="294pt" height="332pt"
 viewBox="0.00 0.00 293.84 332.00" xmlns="http://www.w3.org/2000/svg" xmlns:xlink="http://www.w3.org/1999/xlink">
<g id="graph0" class="graph" transform="scale(1 1) rotate(0) translate(4 328)">
<polygon fill="white" stroke="none" points="-4,4 -4,-328 289.84,-328 289.84,4 -4,4"/>
<!-- P -->
<g id="node1" class="node">
<title>P</title>
<ellipse fill="none" stroke="gray" cx="98.84" cy="-306" rx="33.95" ry="18"/>
<text text-anchor="middle" x="98.84" y="-300.95" font-family="Times,serif" font-size="14.00" fill="gray">parent</text>
</g>
<!-- K2 -->
<g id="node2" class="node">
<title>K2</title>
<ellipse fill="none" stroke="red" cx="98.84" cy="-234" rx="48.79" ry="18"/>
<text text-anchor="middle" x="98.84" y="-228.95" font-family="Times,serif" font-size="14.00" fill="red">K2 (node)</text>
</g>
<!-- P&#45;&gt;K2 -->
<g id="edge1" class="edge">
<title>P&#45;&gt;K2</title>
<path fill="none" stroke="black" stroke-dasharray="1,5" d="M98.84,-276.24C98.84,-268.04 98.84,-259.37 98.84,-252.1"/>
<polygon fill="black" stroke="black" points="95.34,-276.18 98.84,-286.18 102.34,-276.18 95.34,-276.18"/>
</g>
<!-- K1 -->
<g id="node3" class="node">
<title>K1</title>
<ellipse fill="none" stroke="black" cx="50.84" cy="-162" rx="50.84" ry="18"/>
<text text-anchor="middle" x="50.84" y="-156.95" font-family="Times,serif" font-size="14.00">K1 (uncle)</text>
</g>
<!-- K2&#45;&gt;K1 -->
<g id="edge2" class="edge">
<title>K2&#45;&gt;K1</title>
<path fill="none" stroke="black" d="M87.22,-216.05C81.68,-207.97 74.92,-198.12 68.74,-189.11"/>
<polygon fill="black" stroke="black" points="71.75,-187.31 63.21,-181.04 65.98,-191.26 71.75,-187.31"/>
</g>
<!-- K3 -->
<g id="node4" class="node">
<title>K3</title>
<ellipse fill="none" stroke="black" cx="157.84" cy="-162" rx="27" ry="18"/>
<text text-anchor="middle" x="157.84" y="-156.95" font-family="Times,serif" font-size="14.00">K3</text>
</g>
<!-- K2&#45;&gt;K3 -->
<g id="edge3" class="edge">
<title>K2&#45;&gt;K3</title>
<path fill="none" stroke="black" d="M112.82,-216.41C120.34,-207.5 129.73,-196.35 137.99,-186.56"/>
<polygon fill="black" stroke="black" points="140.42,-189.1 144.19,-179.2 135.07,-184.59 140.42,-189.1"/>
</g>
<!-- BHn -->
<g id="node5" class="node">
<title>BHn</title>
<polygon fill="none" stroke="black" stroke-dasharray="1,5" points="150.46,-36 57.21,-36 57.21,0 150.46,0 150.46,-36"/>
<text text-anchor="middle" x="103.84" y="-11.82" font-family="Italic" font-size="14.00">black height n</text>
</g>
<!-- K1&#45;&gt;BHn -->
<g id="edge7" class="edge">
<title>K1&#45;&gt;BHn</title>
<path fill="none" stroke="black" d="M37.42,-144.41C28.39,-125.87 20.95,-95.4 31.84,-72 37.06,-60.79 45.95,-51.1 55.77,-43.19"/>
<polygon fill="black" stroke="black" points="57.77,-46.06 63.76,-37.33 53.63,-40.42 57.77,-46.06"/>
</g>
<!-- K1&#45;&gt;BHn -->
<g id="edge10" class="edge">
<title>K1&#45;&gt;BHn</title>
<path fill="none" stroke="black" d="M50.36,-143.74C46.21,-125.14 39.08,-95.12 49.84,-72 54.95,-61.02 63.58,-51.5 72.52,-43.68"/>
<polygon fill="black" stroke="black" points="74.71,-46.41 80.26,-37.39 70.29,-40.98 74.71,-46.41"/>
</g>
<!-- Y -->
<g id="node8" class="node">
<title>Y</title>
<ellipse fill="none" stroke="none" cx="76.84" cy="-90" rx="27" ry="18"/>
<text text-anchor="middle" x="76.84" y="-84.95" font-family="Times,serif" font-size="14.00" fill="#fffffe" fill-opacity="0.000000">Y</text>
</g>
<!-- K1&#45;&gt;Y -->
<g id="edge8" class="edge">
<title>K1&#45;&gt;Y</title>
<path fill="none" stroke="none" d="M57.27,-143.7C60.11,-136.04 63.52,-126.85 66.7,-118.3"/>
<polygon fill="none" stroke="none" points="69.94,-119.63 70.14,-109.04 63.38,-117.2 69.94,-119.63"/>
</g>
<!-- K3&#45;&gt;BHn -->
<g id="edge4" class="edge">
<title>K3&#45;&gt;BHn</title>
<path fill="none" stroke="black" d="M151.43,-144.15C142.31,-120.16 125.45,-75.84 114.45,-46.9"/>
<polygon fill="black" stroke="black" points="117.77,-45.79 110.94,-37.68 111.23,-48.27 117.77,-45.79"/>
</g>
<!-- X -->
<g id="node6" class="node">
<title>X</title>
<ellipse fill="none" stroke="none" cx="186.84" cy="-90" rx="27" ry="18"/>
<text text-anchor="middle" x="186.84" y="-84.95" font-family="Times,serif" font-size="14.00" fill="#fffffe" fill-opacity="0.000000">X</text>
</g>
<!-- K3&#45;&gt;X -->
<g id="edge5" class="edge">
<title>K3&#45;&gt;X</title>
<path fill="none" stroke="none" d="M164.71,-144.41C168,-136.48 172.02,-126.78 175.72,-117.84"/>
<polygon fill="none" stroke="none" points="178.84,-119.45 179.44,-108.87 172.38,-116.77 178.84,-119.45"/>
</g>
<!-- K4 -->
<g id="node7" class="node">
<title>K4</title>
<ellipse fill="none" stroke="red" cx="258.84" cy="-90" rx="27" ry="18"/>
<text text-anchor="middle" x="258.84" y="-84.95" font-family="Times,serif" font-size="14.00" fill="red">K4</text>
</g>
<!-- K3&#45;&gt;K4 -->
<g id="edge6" class="edge">
<title>K3&#45;&gt;K4</title>
<path fill="none" stroke="black" d="M175.9,-148.49C191.31,-137.8 213.72,-122.27 231.36,-110.04"/>
<polygon fill="black" stroke="black" points="233.13,-113.08 239.35,-104.5 229.14,-107.32 233.13,-113.08"/>
</g>
<!-- K4&#45;&gt;BHn -->
<g id="edge11" class="edge">
<title>K4&#45;&gt;BHn</title>
<path fill="none" stroke="black" d="M234.74,-81.48C227.82,-78.49 220.5,-75.05 213.84,-72 191.43,-61.72 166.53,-50.59 146.02,-41.19"/>
<polygon fill="black" stroke="black" points="147.65,-38.09 137.11,-37.08 144.72,-44.44 147.65,-38.09"/>
</g>
<!-- K4&#45;&gt;BHn -->
<g id="edge12" class="edge">
<title>K4&#45;&gt;BHn</title>
<path fill="none" stroke="black" d="M240.69,-76.13C237.74,-74.72 234.73,-73.33 231.84,-72 208.95,-61.5 183.45,-50.1 161.21,-40.58"/>
<polygon fill="black" stroke="black" points="162.88,-37.49 152.31,-36.8 160.14,-43.93 162.88,-37.49"/>
</g>
<!-- Y&#45;&gt;BHn -->
<g id="edge9" class="edge">
<title>Y&#45;&gt;BHn</title>
<path fill="none" stroke="none" d="M83.38,-72.05C86.28,-64.52 89.79,-55.44 93.06,-46.94"/>
<polygon fill="none" stroke="none" points="96.3,-48.28 96.63,-37.69 89.77,-45.76 96.3,-48.28"/>
</g>
</g>
</svg>
