<?xml version="1.0" encoding="UTF-8" standalone="no"?>
<!DOCTYPE svg PUBLIC "-//W3C//DTD SVG 1.1//EN"
 "http://www.w3.org/Graphics/SVG/1.1/DTD/svg11.dtd">
<!-- Generated by graphviz version 12.2.1 (20241206.2353)
 -->
<!-- Pages: 1 -->
<svg width="242pt" height="188pt"
 viewBox="0.00 0.00 242.00 188.00" xmlns="http://www.w3.org/2000/svg" xmlns:xlink="http://www.w3.org/1999/xlink">
<g id="graph0" class="graph" transform="scale(1 1) rotate(0) translate(4 184)">
<polygon fill="white" stroke="none" points="-4,4 -4,-184 238,-184 238,4 -4,4"/>
<!-- K2 -->
<g id="node1" class="node">
<title>K2</title>
<ellipse fill="none" stroke="red" cx="135" cy="-162" rx="27" ry="18"/>
<text text-anchor="middle" x="135" y="-156.95" font-family="Times,serif" font-size="14.00" fill="red">K2</text>
</g>
<!-- K1 -->
<g id="node2" class="node">
<title>K1</title>
<ellipse fill="none" stroke="black" cx="63" cy="-90" rx="27" ry="18"/>
<text text-anchor="middle" x="63" y="-84.95" font-family="Times,serif" font-size="14.00">K1</text>
</g>
<!-- K2&#45;&gt;K1 -->
<g id="edge1" class="edge">
<title>K2&#45;&gt;K1</title>
<path fill="none" stroke="black" d="M120.08,-146.5C110.23,-136.92 97.14,-124.19 85.97,-113.34"/>
<polygon fill="black" stroke="black" points="88.59,-111 78.98,-106.54 83.71,-116.02 88.59,-111"/>
</g>
<!-- K3 -->
<g id="node3" class="node">
<title>K3</title>
<ellipse fill="none" stroke="none" cx="135" cy="-90" rx="27" ry="18"/>
<text text-anchor="middle" x="135" y="-84.95" font-family="Times,serif" font-size="14.00" fill="#fffffe" fill-opacity="0.000000">K3</text>
</g>
<!-- K2&#45;&gt;K3 -->
<g id="edge2" class="edge">
<title>K2&#45;&gt;K3</title>
<path fill="none" stroke="none" d="M135,-143.7C135,-136.41 135,-127.73 135,-119.54"/>
<polygon fill="none" stroke="none" points="138.5,-119.62 135,-109.62 131.5,-119.62 138.5,-119.62"/>
</g>
<!-- C -->
<g id="node6" class="node">
<title>C</title>
<ellipse fill="none" stroke="black" cx="207" cy="-90" rx="27" ry="18"/>
<text text-anchor="middle" x="207" y="-84.95" font-family="Times,serif" font-size="14.00" fill="#fffffe" fill-opacity="0.000000">C</text>
</g>
<!-- K2&#45;&gt;C -->
<g id="edge5" class="edge">
<title>K2&#45;&gt;C</title>
<path fill="none" stroke="black" d="M149.92,-146.5C159.77,-136.92 172.86,-124.19 184.03,-113.34"/>
<polygon fill="black" stroke="black" points="186.29,-116.02 191.02,-106.54 181.41,-111 186.29,-116.02"/>
</g>
<!-- A -->
<g id="node4" class="node">
<title>A</title>
<ellipse fill="none" stroke="black" cx="27" cy="-18" rx="27" ry="18"/>
<text text-anchor="middle" x="27" y="-12.95" font-family="Times,serif" font-size="14.00" fill="#fffffe" fill-opacity="0.000000">A</text>
</g>
<!-- K1&#45;&gt;A -->
<g id="edge3" class="edge">
<title>K1&#45;&gt;A</title>
<path fill="none" stroke="black" d="M54.65,-72.76C50.42,-64.55 45.19,-54.37 40.42,-45.09"/>
<polygon fill="black" stroke="black" points="43.68,-43.79 36,-36.49 37.46,-46.99 43.68,-43.79"/>
</g>
<!-- B -->
<g id="node5" class="node">
<title>B</title>
<ellipse fill="none" stroke="black" cx="99" cy="-18" rx="27" ry="18"/>
<text text-anchor="middle" x="99" y="-12.95" font-family="Times,serif" font-size="14.00" fill="#fffffe" fill-opacity="0.000000">B</text>
</g>
<!-- K1&#45;&gt;B -->
<g id="edge4" class="edge">
<title>K1&#45;&gt;B</title>
<path fill="none" stroke="black" d="M71.35,-72.76C75.58,-64.55 80.81,-54.37 85.58,-45.09"/>
<polygon fill="black" stroke="black" points="88.54,-46.99 90,-36.49 82.32,-43.79 88.54,-46.99"/>
</g>
</g>
</svg>
