<?xml version="1.0" encoding="UTF-8" standalone="no"?>
<!DOCTYPE svg PUBLIC "-//W3C//DTD SVG 1.1//EN"
 "http://www.w3.org/Graphics/SVG/1.1/DTD/svg11.dtd">
<!-- Generated by graphviz version 12.2.1 (20241206.2353)
 -->
<!-- Pages: 1 -->
<svg width="374pt" height="275pt"
 viewBox="0.00 0.00 374.28 274.75" xmlns="http://www.w3.org/2000/svg" xmlns:xlink="http://www.w3.org/1999/xlink">
<g id="graph0" class="graph" transform="scale(1 1) rotate(0) translate(4 270.75)">
<polygon fill="white" stroke="none" points="-4,4 -4,-270.75 370.28,-270.75 370.28,4 -4,4"/>
<!-- K6 -->
<g id="node1" class="node">
<title>K6</title>
<ellipse fill="none" stroke="darkgray" cx="243.15" cy="-248.75" rx="53.91" ry="18"/>
<text text-anchor="middle" x="243.15" y="-243.7" font-family="Times,serif" font-size="14.00" fill="darkgray">K6 (parent)</text>
</g>
<!-- K2 -->
<g id="node2" class="node">
<title>K2</title>
<ellipse fill="none" stroke="darkgray" cx="178.15" cy="-176.75" rx="55.96" ry="18"/>
<text text-anchor="middle" x="178.15" y="-171.7" font-family="Times,serif" font-size="14.00" fill="darkgray">K2 (sibling)</text>
</g>
<!-- K6&#45;&gt;K2 -->
<g id="edge1" class="edge">
<title>K6&#45;&gt;K2</title>
<path fill="none" stroke="black" d="M227.75,-231.16C219.82,-222.62 209.98,-212.03 201.17,-202.54"/>
<polygon fill="black" stroke="black" points="203.85,-200.28 194.48,-195.33 198.72,-205.04 203.85,-200.28"/>
</g>
<!-- BH1 -->
<g id="node3" class="node">
<title>BH1</title>
<polygon fill="none" stroke="black" stroke-dasharray="1,5" points="366.28,-194.75 252.03,-194.75 252.03,-158.75 366.28,-158.75 366.28,-194.75"/>
<text text-anchor="middle" x="309.15" y="-170.57" font-family="Italic" font-size="14.00">black height i + 1</text>
</g>
<!-- K6&#45;&gt;BH1 -->
<g id="edge2" class="edge">
<title>K6&#45;&gt;BH1</title>
<path fill="none" stroke="black" d="M258.8,-231.16C266.62,-222.87 276.26,-212.64 285,-203.37"/>
<polygon fill="black" stroke="black" points="287.35,-205.97 291.67,-196.3 282.26,-201.17 287.35,-205.97"/>
</g>
<!-- K1 -->
<g id="node4" class="node">
<title>K1</title>
<ellipse fill="none" stroke="darkgray" cx="86.15" cy="-104.75" rx="86.15" ry="18"/>
<text text-anchor="middle" x="86.15" y="-99.7" font-family="Times,serif" font-size="14.00" fill="darkgray">K1 (distantNephew)</text>
</g>
<!-- K2&#45;&gt;K1 -->
<g id="edge3" class="edge">
<title>K2&#45;&gt;K1</title>
<path fill="none" stroke="black" d="M157.28,-159.87C145.39,-150.82 130.27,-139.32 117.03,-129.24"/>
<polygon fill="black" stroke="black" points="119.51,-126.73 109.44,-123.46 115.27,-132.3 119.51,-126.73"/>
</g>
<!-- K4 -->
<g id="node5" class="node">
<title>K4</title>
<ellipse fill="none" stroke="darkgray" cx="271.15" cy="-104.75" rx="80.52" ry="18"/>
<text text-anchor="middle" x="271.15" y="-99.7" font-family="Times,serif" font-size="14.00" fill="darkgray">K4 (closeNephew)</text>
</g>
<!-- K2&#45;&gt;K4 -->
<g id="edge4" class="edge">
<title>K2&#45;&gt;K4</title>
<path fill="none" stroke="black" d="M199.26,-159.87C211.36,-150.75 226.78,-139.15 240.23,-129.03"/>
<polygon fill="black" stroke="black" points="242.07,-132.02 247.96,-123.21 237.86,-126.43 242.07,-132.02"/>
</g>
<!-- BH2 -->
<g id="node6" class="node">
<title>BH2</title>
<polygon fill="none" stroke="black" stroke-dasharray="1,5" points="156.03,-50.75 16.28,-50.75 16.28,0 156.03,0 156.03,-50.75"/>
<text text-anchor="middle" x="86.15" y="-33.45" font-family="Italic" font-size="14.00">black height i + 2 &#45; </text>
<text text-anchor="middle" x="86.15" y="-19.2" font-family="Italic" font-size="14.00">number of black nodes</text>
<text text-anchor="middle" x="86.15" y="-4.95" font-family="Italic" font-size="14.00">in { K1, K2 }</text>
</g>
<!-- K1&#45;&gt;BH2 -->
<g id="edge5" class="edge">
<title>K1&#45;&gt;BH2</title>
<path fill="none" stroke="black" d="M80.43,-86.58C79.67,-79.42 79.33,-70.81 79.42,-62.38"/>
<polygon fill="black" stroke="black" points="82.91,-62.76 79.76,-52.65 75.91,-62.52 82.91,-62.76"/>
</g>
<!-- K1&#45;&gt;BH2 -->
<g id="edge6" class="edge">
<title>K1&#45;&gt;BH2</title>
<path fill="none" stroke="black" d="M91.87,-86.58C92.64,-79.42 92.98,-70.81 92.89,-62.38"/>
<polygon fill="black" stroke="black" points="96.4,-62.52 92.55,-52.65 89.4,-62.76 96.4,-62.52"/>
</g>
<!-- BH3 -->
<g id="node7" class="node">
<title>BH3</title>
<polygon fill="none" stroke="black" stroke-dasharray="1,5" points="341.03,-50.75 201.28,-50.75 201.28,0 341.03,0 341.03,-50.75"/>
<text text-anchor="middle" x="271.15" y="-33.45" font-family="Italic" font-size="14.00">black height i + 2 &#45; </text>
<text text-anchor="middle" x="271.15" y="-19.2" font-family="Italic" font-size="14.00">number of black nodes</text>
<text text-anchor="middle" x="271.15" y="-4.95" font-family="Italic" font-size="14.00">in { K2, K4 }</text>
</g>
<!-- K4&#45;&gt;BH3 -->
<g id="edge7" class="edge">
<title>K4&#45;&gt;BH3</title>
<path fill="none" stroke="black" d="M265.43,-86.58C264.67,-79.42 264.33,-70.81 264.42,-62.38"/>
<polygon fill="black" stroke="black" points="267.91,-62.76 264.76,-52.65 260.91,-62.52 267.91,-62.76"/>
</g>
<!-- K4&#45;&gt;BH3 -->
<g id="edge8" class="edge">
<title>K4&#45;&gt;BH3</title>
<path fill="none" stroke="black" d="M276.87,-86.58C277.64,-79.42 277.98,-70.81 277.89,-62.38"/>
<polygon fill="black" stroke="black" points="281.4,-62.52 277.55,-52.65 274.4,-62.76 281.4,-62.52"/>
</g>
</g>
</svg>
