<?xml version="1.0" encoding="UTF-8" standalone="no"?>
<!DOCTYPE svg PUBLIC "-//W3C//DTD SVG 1.1//EN"
 "http://www.w3.org/Graphics/SVG/1.1/DTD/svg11.dtd">
<!-- Generated by graphviz version 12.2.1 (20241206.2353)
 -->
<!-- Pages: 1 -->
<svg width="384pt" height="261pt"
 viewBox="0.00 0.00 384.25 260.50" xmlns="http://www.w3.org/2000/svg" xmlns:xlink="http://www.w3.org/1999/xlink">
<g id="graph0" class="graph" transform="scale(1 1) rotate(0) translate(4 256.5)">
<polygon fill="white" stroke="none" points="-4,4 -4,-256.5 380.25,-256.5 380.25,4 -4,4"/>
<!-- K2 -->
<g id="node1" class="node">
<title>K2</title>
<ellipse fill="none" stroke="black" cx="122.12" cy="-234.5" rx="27" ry="18"/>
<text text-anchor="middle" x="122.12" y="-229.45" font-family="Times,serif" font-size="14.00">K2</text>
</g>
<!-- K1 -->
<g id="node2" class="node">
<title>K1</title>
<ellipse fill="none" stroke="black" cx="57.12" cy="-162.5" rx="27" ry="18"/>
<text text-anchor="middle" x="57.13" y="-157.45" font-family="Times,serif" font-size="14.00">K1</text>
</g>
<!-- K2&#45;&gt;K1 -->
<g id="edge1" class="edge">
<title>K2&#45;&gt;K1</title>
<path fill="none" stroke="black" d="M108.34,-218.65C99.72,-209.37 88.44,-197.23 78.66,-186.69"/>
<polygon fill="black" stroke="black" points="81.29,-184.38 71.92,-179.43 76.16,-189.14 81.29,-184.38"/>
</g>
<!-- K6 -->
<g id="node3" class="node">
<title>K6</title>
<ellipse fill="none" stroke="red" cx="188.12" cy="-162.5" rx="53.91" ry="18"/>
<text text-anchor="middle" x="188.12" y="-157.45" font-family="Times,serif" font-size="14.00" fill="red">K6 (parent)</text>
</g>
<!-- K2&#45;&gt;K6 -->
<g id="edge2" class="edge">
<title>K2&#45;&gt;K6</title>
<path fill="none" stroke="black" d="M136.12,-218.65C144.52,-209.75 155.4,-198.21 165.04,-187.98"/>
<polygon fill="black" stroke="black" points="167.41,-190.57 171.73,-180.89 162.32,-185.77 167.41,-190.57"/>
</g>
<!-- BH1 -->
<g id="node4" class="node">
<title>BH1</title>
<polygon fill="none" stroke="black" stroke-dasharray="1,5" points="114.25,-108.5 0,-108.5 0,-72.5 114.25,-72.5 114.25,-108.5"/>
<text text-anchor="middle" x="57.13" y="-84.33" font-family="Italic" font-size="14.00">black height i + 1</text>
</g>
<!-- K1&#45;&gt;BH1 -->
<g id="edge3" class="edge">
<title>K1&#45;&gt;BH1</title>
<path fill="none" stroke="black" d="M51.25,-144.55C50.46,-137.18 50.21,-128.34 50.48,-120.01"/>
<polygon fill="black" stroke="black" points="53.96,-120.49 51.11,-110.29 46.97,-120.04 53.96,-120.49"/>
</g>
<!-- K1&#45;&gt;BH1 -->
<g id="edge4" class="edge">
<title>K1&#45;&gt;BH1</title>
<path fill="none" stroke="black" d="M63,-144.55C63.79,-137.18 64.04,-128.34 63.77,-120.01"/>
<polygon fill="black" stroke="black" points="67.28,-120.04 63.14,-110.29 60.29,-120.49 67.28,-120.04"/>
</g>
<!-- K4 -->
<g id="node5" class="node">
<title>K4</title>
<ellipse fill="none" stroke="black" cx="188.12" cy="-90.5" rx="55.96" ry="18"/>
<text text-anchor="middle" x="188.12" y="-85.45" font-family="Times,serif" font-size="14.00">K4 (sibling)</text>
</g>
<!-- K6&#45;&gt;K4 -->
<g id="edge5" class="edge">
<title>K6&#45;&gt;K4</title>
<path fill="none" stroke="black" d="M188.12,-144.2C188.12,-136.91 188.12,-128.23 188.12,-120.04"/>
<polygon fill="black" stroke="black" points="191.63,-120.12 188.13,-110.12 184.63,-120.12 191.63,-120.12"/>
</g>
<!-- BH2 -->
<g id="node6" class="node">
<title>BH2</title>
<polygon fill="none" stroke="black" stroke-dasharray="1,5" points="376.25,-108.5 262,-108.5 262,-72.5 376.25,-72.5 376.25,-108.5"/>
<text text-anchor="middle" x="319.12" y="-84.33" font-family="Italic" font-size="14.00">black height i + 1</text>
</g>
<!-- K6&#45;&gt;BH2 -->
<g id="edge6" class="edge">
<title>K6&#45;&gt;BH2</title>
<path fill="none" stroke="black" d="M215.91,-146.65C233.56,-137.22 256.76,-124.83 276.69,-114.18"/>
<polygon fill="black" stroke="black" points="278.26,-117.31 285.43,-109.51 274.96,-111.13 278.26,-117.31"/>
</g>
<!-- BH3 -->
<g id="node7" class="node">
<title>BH3</title>
<polygon fill="none" stroke="black" stroke-dasharray="1,5" points="181.12,-36.5 3.12,-36.5 3.12,0 181.12,0 181.12,-36.5"/>
<text text-anchor="middle" x="92.12" y="-19.2" font-family="Italic" font-size="14.00">black height i + 1</text>
<text text-anchor="middle" x="92.12" y="-4.95" font-family="Italic" font-size="14.00">with root K3 (distantNephew)</text>
</g>
<!-- K4&#45;&gt;BH3 -->
<g id="edge7" class="edge">
<title>K4&#45;&gt;BH3</title>
<path fill="none" stroke="black" d="M166.34,-73.56C154.21,-64.68 138.84,-53.44 125.25,-43.49"/>
<polygon fill="black" stroke="black" points="127.54,-40.83 117.4,-37.75 123.41,-46.48 127.54,-40.83"/>
</g>
<!-- BH4 -->
<g id="node8" class="node">
<title>BH4</title>
<polygon fill="none" stroke="black" stroke-dasharray="1,5" points="368.62,-36.5 199.62,-36.5 199.62,0 368.62,0 368.62,-36.5"/>
<text text-anchor="middle" x="284.12" y="-19.2" font-family="Italic" font-size="14.00">black height i + 1</text>
<text text-anchor="middle" x="284.12" y="-4.95" font-family="Italic" font-size="14.00">with root K5 (closeNephew)</text>
</g>
<!-- K4&#45;&gt;BH4 -->
<g id="edge8" class="edge">
<title>K4&#45;&gt;BH4</title>
<path fill="none" stroke="black" d="M209.91,-73.56C222.04,-64.68 237.41,-53.44 251,-43.49"/>
<polygon fill="black" stroke="black" points="252.84,-46.48 258.85,-37.75 248.71,-40.83 252.84,-46.48"/>
</g>
</g>
</svg>
