<?xml version="1.0" encoding="UTF-8" standalone="no"?>
<!DOCTYPE svg PUBLIC "-//W3C//DTD SVG 1.1//EN"
 "http://www.w3.org/Graphics/SVG/1.1/DTD/svg11.dtd">
<!-- Generated by graphviz version 12.2.1 (20241206.2353)
 -->
<!-- Pages: 1 -->
<svg width="374pt" height="260pt"
 viewBox="0.00 0.00 374.28 260.00" xmlns="http://www.w3.org/2000/svg" xmlns:xlink="http://www.w3.org/1999/xlink">
<g id="graph0" class="graph" transform="scale(1 1) rotate(0) translate(4 256)">
<polygon fill="white" stroke="none" points="-4,4 -4,-256 370.28,-256 370.28,4 -4,4"/>
<!-- K6 -->
<g id="node1" class="node">
<title>K6</title>
<ellipse fill="none" stroke="black" cx="243.15" cy="-234" rx="53.91" ry="18"/>
<text text-anchor="middle" x="243.15" y="-228.95" font-family="Times,serif" font-size="14.00">K6 (parent)</text>
</g>
<!-- K2 -->
<g id="node2" class="node">
<title>K2</title>
<ellipse fill="none" stroke="red" cx="178.15" cy="-162" rx="55.96" ry="18"/>
<text text-anchor="middle" x="178.15" y="-156.95" font-family="Times,serif" font-size="14.00" fill="red">K2 (sibling)</text>
</g>
<!-- K6&#45;&gt;K2 -->
<g id="edge1" class="edge">
<title>K6&#45;&gt;K2</title>
<path fill="none" stroke="black" d="M227.75,-216.41C219.82,-207.87 209.98,-197.28 201.17,-187.79"/>
<polygon fill="black" stroke="black" points="203.85,-185.53 194.48,-180.58 198.72,-190.29 203.85,-185.53"/>
</g>
<!-- BH1 -->
<g id="node3" class="node">
<title>BH1</title>
<polygon fill="none" stroke="black" stroke-dasharray="1,5" points="366.28,-180 252.03,-180 252.03,-144 366.28,-144 366.28,-180"/>
<text text-anchor="middle" x="309.15" y="-155.82" font-family="Italic" font-size="14.00">black height i + 1</text>
</g>
<!-- K6&#45;&gt;BH1 -->
<g id="edge2" class="edge">
<title>K6&#45;&gt;BH1</title>
<path fill="none" stroke="black" d="M258.8,-216.41C266.62,-208.12 276.26,-197.89 285,-188.62"/>
<polygon fill="black" stroke="black" points="287.35,-191.22 291.67,-181.55 282.26,-186.42 287.35,-191.22"/>
</g>
<!-- K1 -->
<g id="node4" class="node">
<title>K1</title>
<ellipse fill="none" stroke="black" cx="86.15" cy="-90" rx="86.15" ry="18"/>
<text text-anchor="middle" x="86.15" y="-84.95" font-family="Times,serif" font-size="14.00">K1 (distantNephew)</text>
</g>
<!-- K2&#45;&gt;K1 -->
<g id="edge3" class="edge">
<title>K2&#45;&gt;K1</title>
<path fill="none" stroke="black" d="M157.28,-145.12C145.39,-136.07 130.27,-124.57 117.03,-114.49"/>
<polygon fill="black" stroke="black" points="119.51,-111.98 109.44,-108.71 115.27,-117.55 119.51,-111.98"/>
</g>
<!-- K4 -->
<g id="node5" class="node">
<title>K4</title>
<ellipse fill="none" stroke="black" cx="271.15" cy="-90" rx="80.52" ry="18"/>
<text text-anchor="middle" x="271.15" y="-84.95" font-family="Times,serif" font-size="14.00">K4 (closeNephew)</text>
</g>
<!-- K2&#45;&gt;K4 -->
<g id="edge4" class="edge">
<title>K2&#45;&gt;K4</title>
<path fill="none" stroke="black" d="M199.26,-145.12C211.36,-136 226.78,-124.4 240.23,-114.28"/>
<polygon fill="black" stroke="black" points="242.07,-117.27 247.96,-108.46 237.86,-111.68 242.07,-117.27"/>
</g>
<!-- BH2 -->
<g id="node6" class="node">
<title>BH2</title>
<polygon fill="none" stroke="black" stroke-dasharray="1,5" points="143.28,-36 29.03,-36 29.03,0 143.28,0 143.28,-36"/>
<text text-anchor="middle" x="86.15" y="-11.82" font-family="Italic" font-size="14.00">black height i + 1</text>
</g>
<!-- K1&#45;&gt;BH2 -->
<g id="edge5" class="edge">
<title>K1&#45;&gt;BH2</title>
<path fill="none" stroke="black" d="M80.24,-71.7C79.49,-64.41 79.24,-55.73 79.51,-47.54"/>
<polygon fill="black" stroke="black" points="83,-47.82 80.16,-37.61 76.01,-47.36 83,-47.82"/>
</g>
<!-- K1&#45;&gt;BH2 -->
<g id="edge6" class="edge">
<title>K1&#45;&gt;BH2</title>
<path fill="none" stroke="black" d="M92.07,-71.7C92.82,-64.41 93.07,-55.73 92.8,-47.54"/>
<polygon fill="black" stroke="black" points="96.3,-47.36 92.15,-37.61 89.31,-47.82 96.3,-47.36"/>
</g>
<!-- BH3 -->
<g id="node7" class="node">
<title>BH3</title>
<polygon fill="none" stroke="black" stroke-dasharray="1,5" points="328.28,-36 214.03,-36 214.03,0 328.28,0 328.28,-36"/>
<text text-anchor="middle" x="271.15" y="-11.82" font-family="Italic" font-size="14.00">black height i + 1</text>
</g>
<!-- K4&#45;&gt;BH3 -->
<g id="edge7" class="edge">
<title>K4&#45;&gt;BH3</title>
<path fill="none" stroke="black" d="M265.24,-71.7C264.49,-64.41 264.24,-55.73 264.51,-47.54"/>
<polygon fill="black" stroke="black" points="268,-47.82 265.16,-37.61 261.01,-47.36 268,-47.82"/>
</g>
<!-- K4&#45;&gt;BH3 -->
<g id="edge8" class="edge">
<title>K4&#45;&gt;BH3</title>
<path fill="none" stroke="black" d="M277.07,-71.7C277.82,-64.41 278.07,-55.73 277.8,-47.54"/>
<polygon fill="black" stroke="black" points="281.3,-47.36 277.15,-37.61 274.31,-47.82 281.3,-47.36"/>
</g>
</g>
</svg>
