<?xml version="1.0" encoding="UTF-8" standalone="no"?>
<!DOCTYPE svg PUBLIC "-//W3C//DTD SVG 1.1//EN"
 "http://www.w3.org/Graphics/SVG/1.1/DTD/svg11.dtd">
<!-- Generated by graphviz version 12.2.1 (20241206.2353)
 -->
<!-- Pages: 1 -->
<svg width="384pt" height="332pt"
 viewBox="0.00 0.00 384.25 332.00" xmlns="http://www.w3.org/2000/svg" xmlns:xlink="http://www.w3.org/1999/xlink">
<g id="graph0" class="graph" transform="scale(1 1) rotate(0) translate(4 328)">
<polygon fill="white" stroke="none" points="-4,4 -4,-328 380.25,-328 380.25,4 -4,4"/>
<!-- K2 -->
<g id="node1" class="node">
<title>K2</title>
<ellipse fill="none" stroke="black" cx="122.12" cy="-306" rx="27" ry="18"/>
<text text-anchor="middle" x="122.12" y="-300.95" font-family="Times,serif" font-size="14.00">K2</text>
</g>
<!-- K1 -->
<g id="node2" class="node">
<title>K1</title>
<ellipse fill="none" stroke="black" cx="57.12" cy="-234" rx="27" ry="18"/>
<text text-anchor="middle" x="57.12" y="-228.95" font-family="Times,serif" font-size="14.00">K1</text>
</g>
<!-- K2&#45;&gt;K1 -->
<g id="edge1" class="edge">
<title>K2&#45;&gt;K1</title>
<path fill="none" stroke="black" d="M108.34,-290.15C99.72,-280.87 88.44,-268.73 78.66,-258.19"/>
<polygon fill="black" stroke="black" points="81.29,-255.88 71.92,-250.93 76.16,-260.64 81.29,-255.88"/>
</g>
<!-- K6 -->
<g id="node3" class="node">
<title>K6</title>
<ellipse fill="none" stroke="red" cx="188.12" cy="-234" rx="53.91" ry="18"/>
<text text-anchor="middle" x="188.12" y="-228.95" font-family="Times,serif" font-size="14.00" fill="red">K6 (parent)</text>
</g>
<!-- K2&#45;&gt;K6 -->
<g id="edge2" class="edge">
<title>K2&#45;&gt;K6</title>
<path fill="none" stroke="black" d="M136.12,-290.15C144.52,-281.25 155.4,-269.71 165.04,-259.48"/>
<polygon fill="black" stroke="black" points="167.41,-262.07 171.73,-252.39 162.32,-257.27 167.41,-262.07"/>
</g>
<!-- BH1 -->
<g id="node6" class="node">
<title>BH1</title>
<polygon fill="none" stroke="black" stroke-dasharray="1,5" points="114.25,-180 0,-180 0,-144 114.25,-144 114.25,-180"/>
<text text-anchor="middle" x="57.12" y="-155.82" font-family="Italic" font-size="14.00">black height i + 1</text>
</g>
<!-- K1&#45;&gt;BH1 -->
<g id="edge5" class="edge">
<title>K1&#45;&gt;BH1</title>
<path fill="none" stroke="black" d="M51.25,-216.05C50.46,-208.68 50.21,-199.84 50.48,-191.51"/>
<polygon fill="black" stroke="black" points="53.96,-191.99 51.11,-181.79 46.97,-191.54 53.96,-191.99"/>
</g>
<!-- K1&#45;&gt;BH1 -->
<g id="edge6" class="edge">
<title>K1&#45;&gt;BH1</title>
<path fill="none" stroke="black" d="M63,-216.05C63.79,-208.68 64.04,-199.84 63.77,-191.51"/>
<polygon fill="black" stroke="black" points="67.28,-191.54 63.14,-181.79 60.29,-191.99 67.28,-191.54"/>
</g>
<!-- K4 -->
<g id="node4" class="node">
<title>K4</title>
<ellipse fill="none" stroke="black" cx="188.12" cy="-162" rx="55.96" ry="18"/>
<text text-anchor="middle" x="188.12" y="-156.95" font-family="Times,serif" font-size="14.00">K4 (sibling)</text>
</g>
<!-- K6&#45;&gt;K4 -->
<g id="edge3" class="edge">
<title>K6&#45;&gt;K4</title>
<path fill="none" stroke="black" d="M188.12,-215.7C188.12,-208.41 188.12,-199.73 188.12,-191.54"/>
<polygon fill="black" stroke="black" points="191.63,-191.62 188.13,-181.62 184.63,-191.62 191.63,-191.62"/>
</g>
<!-- BH3 -->
<g id="node5" class="node">
<title>BH3</title>
<polygon fill="none" stroke="black" stroke-dasharray="1,5" points="376.25,-180 262,-180 262,-144 376.25,-144 376.25,-180"/>
<text text-anchor="middle" x="319.12" y="-155.82" font-family="Italic" font-size="14.00">black height i + 1</text>
</g>
<!-- K6&#45;&gt;BH3 -->
<g id="edge4" class="edge">
<title>K6&#45;&gt;BH3</title>
<path fill="none" stroke="black" d="M215.91,-218.15C233.56,-208.72 256.76,-196.33 276.69,-185.68"/>
<polygon fill="black" stroke="black" points="278.26,-188.81 285.43,-181.01 274.96,-182.63 278.26,-188.81"/>
</g>
<!-- K3 -->
<g id="node7" class="node">
<title>K3</title>
<ellipse fill="none" stroke="red" cx="107.12" cy="-90" rx="86.15" ry="18"/>
<text text-anchor="middle" x="107.12" y="-84.95" font-family="Times,serif" font-size="14.00" fill="red">K3 (distantNephew)</text>
</g>
<!-- K4&#45;&gt;K3 -->
<g id="edge7" class="edge">
<title>K4&#45;&gt;K3</title>
<path fill="none" stroke="black" d="M169.34,-144.76C159.23,-136.03 146.57,-125.09 135.31,-115.36"/>
<polygon fill="black" stroke="black" points="137.66,-112.76 127.8,-108.87 133.08,-118.05 137.66,-112.76"/>
</g>
<!-- BH4 -->
<g id="node9" class="node">
<title>BH4</title>
<polygon fill="none" stroke="black" stroke-dasharray="1,5" points="325.25,-108 211,-108 211,-72 325.25,-72 325.25,-108"/>
<text text-anchor="middle" x="268.12" y="-83.83" font-family="Italic" font-size="14.00">black height i + 1</text>
</g>
<!-- K4&#45;&gt;BH4 -->
<g id="edge10" class="edge">
<title>K4&#45;&gt;BH4</title>
<path fill="none" stroke="black" d="M206.68,-144.76C216.51,-136.16 228.8,-125.41 239.8,-115.78"/>
<polygon fill="black" stroke="black" points="241.91,-118.59 247.13,-109.37 237.3,-113.32 241.91,-118.59"/>
</g>
<!-- BH2 -->
<g id="node8" class="node">
<title>BH2</title>
<polygon fill="none" stroke="black" stroke-dasharray="1,5" points="164.25,-36 50,-36 50,0 164.25,0 164.25,-36"/>
<text text-anchor="middle" x="107.12" y="-11.82" font-family="Italic" font-size="14.00">black height i + 1</text>
</g>
<!-- K3&#45;&gt;BH2 -->
<g id="edge8" class="edge">
<title>K3&#45;&gt;BH2</title>
<path fill="none" stroke="black" d="M101.21,-71.7C100.46,-64.41 100.21,-55.73 100.48,-47.54"/>
<polygon fill="black" stroke="black" points="103.97,-47.82 101.13,-37.61 96.98,-47.36 103.97,-47.82"/>
</g>
<!-- K3&#45;&gt;BH2 -->
<g id="edge9" class="edge">
<title>K3&#45;&gt;BH2</title>
<path fill="none" stroke="black" d="M113.04,-71.7C113.79,-64.41 114.04,-55.73 113.77,-47.54"/>
<polygon fill="black" stroke="black" points="117.27,-47.36 113.12,-37.61 110.28,-47.82 117.27,-47.36"/>
</g>
</g>
</svg>
