<?xml version="1.0" encoding="UTF-8" standalone="no"?>
<!DOCTYPE svg PUBLIC "-//W3C//DTD SVG 1.1//EN"
 "http://www.w3.org/Graphics/SVG/1.1/DTD/svg11.dtd">
<!-- Generated by graphviz version 12.2.1 (20241206.2353)
 -->
<!-- Pages: 1 -->
<svg width="331pt" height="260pt"
 viewBox="0.00 0.00 331.25 260.00" xmlns="http://www.w3.org/2000/svg" xmlns:xlink="http://www.w3.org/1999/xlink">
<g id="graph0" class="graph" transform="scale(1 1) rotate(0) translate(4 256)">
<polygon fill="white" stroke="none" points="-4,4 -4,-256 327.25,-256 327.25,4 -4,4"/>
<!-- K6 -->
<g id="node1" class="node">
<title>K6</title>
<ellipse fill="none" stroke="gray" cx="200.12" cy="-234" rx="53.91" ry="18"/>
<text text-anchor="middle" x="200.12" y="-228.95" font-family="Times,serif" font-size="14.00" fill="gray">K6 (parent)</text>
</g>
<!-- K2 -->
<g id="node2" class="node">
<title>K2</title>
<ellipse fill="none" stroke="black" cx="135.12" cy="-162" rx="55.96" ry="18"/>
<text text-anchor="middle" x="135.12" y="-156.95" font-family="Times,serif" font-size="14.00">K2 (sibling)</text>
</g>
<!-- K6&#45;&gt;K2 -->
<g id="edge1" class="edge">
<title>K6&#45;&gt;K2</title>
<path fill="none" stroke="black" d="M184.72,-216.41C176.79,-207.87 166.96,-197.28 158.14,-187.79"/>
<polygon fill="black" stroke="black" points="160.82,-185.53 151.45,-180.58 155.69,-190.29 160.82,-185.53"/>
</g>
<!-- BH1 -->
<g id="node3" class="node">
<title>BH1</title>
<polygon fill="none" stroke="black" stroke-dasharray="1,5" points="323.25,-180 209,-180 209,-144 323.25,-144 323.25,-180"/>
<text text-anchor="middle" x="266.12" y="-155.82" font-family="Italic" font-size="14.00">black height i + 1</text>
</g>
<!-- K6&#45;&gt;BH1 -->
<g id="edge2" class="edge">
<title>K6&#45;&gt;BH1</title>
<path fill="none" stroke="black" d="M215.77,-216.41C223.59,-208.12 233.23,-197.89 241.97,-188.62"/>
<polygon fill="black" stroke="black" points="244.32,-191.22 248.64,-181.55 239.23,-186.42 244.32,-191.22"/>
</g>
<!-- BH2 -->
<g id="node4" class="node">
<title>BH2</title>
<polygon fill="none" stroke="black" stroke-dasharray="1,5" points="114.25,-108 0,-108 0,-72 114.25,-72 114.25,-108"/>
<text text-anchor="middle" x="57.13" y="-83.83" font-family="Italic" font-size="14.00">black height i + 1</text>
</g>
<!-- K2&#45;&gt;BH2 -->
<g id="edge3" class="edge">
<title>K2&#45;&gt;BH2</title>
<path fill="none" stroke="black" d="M117.03,-144.76C107.45,-136.16 95.46,-125.41 84.74,-115.78"/>
<polygon fill="black" stroke="black" points="87.39,-113.46 77.61,-109.38 82.71,-118.67 87.39,-113.46"/>
</g>
<!-- K4 -->
<g id="node5" class="node">
<title>K4</title>
<ellipse fill="none" stroke="red" cx="213.12" cy="-90" rx="80.52" ry="18"/>
<text text-anchor="middle" x="213.12" y="-84.95" font-family="Times,serif" font-size="14.00" fill="red">K4 (closeNephew)</text>
</g>
<!-- K2&#45;&gt;K4 -->
<g id="edge4" class="edge">
<title>K2&#45;&gt;K4</title>
<path fill="none" stroke="black" d="M153.22,-144.76C162.95,-136.03 175.14,-125.09 185.98,-115.36"/>
<polygon fill="black" stroke="black" points="188.09,-118.17 193.19,-108.89 183.41,-112.96 188.09,-118.17"/>
</g>
<!-- BH3 -->
<g id="node6" class="node">
<title>BH3</title>
<polygon fill="none" stroke="black" stroke-dasharray="1,5" points="270.25,-36 156,-36 156,0 270.25,0 270.25,-36"/>
<text text-anchor="middle" x="213.12" y="-11.82" font-family="Italic" font-size="14.00">black height i + 1</text>
</g>
<!-- K4&#45;&gt;BH3 -->
<g id="edge5" class="edge">
<title>K4&#45;&gt;BH3</title>
<path fill="none" stroke="black" d="M207.21,-71.7C206.46,-64.41 206.21,-55.73 206.48,-47.54"/>
<polygon fill="black" stroke="black" points="209.97,-47.82 207.13,-37.61 202.98,-47.36 209.97,-47.82"/>
</g>
<!-- K4&#45;&gt;BH3 -->
<g id="edge6" class="edge">
<title>K4&#45;&gt;BH3</title>
<path fill="none" stroke="black" d="M219.04,-71.7C219.79,-64.41 220.04,-55.73 219.77,-47.54"/>
<polygon fill="black" stroke="black" points="223.27,-47.36 219.12,-37.61 216.28,-47.82 223.27,-47.36"/>
</g>
</g>
</svg>
