<?xml version="1.0" encoding="UTF-8" standalone="no"?>
<!DOCTYPE svg PUBLIC "-//W3C//DTD SVG 1.1//EN"
 "http://www.w3.org/Graphics/SVG/1.1/DTD/svg11.dtd">
<!-- Generated by graphviz version 12.2.1 (20241206.2353)
 -->
<!-- Pages: 1 -->
<svg width="251pt" height="260pt"
 viewBox="0.00 0.00 250.50 260.00" xmlns="http://www.w3.org/2000/svg" xmlns:xlink="http://www.w3.org/1999/xlink">
<g id="graph0" class="graph" transform="scale(1 1) rotate(0) translate(4 256)">
<polygon fill="white" stroke="none" points="-4,4 -4,-256 246.5,-256 246.5,4 -4,4"/>
<!-- K1 -->
<g id="node1" class="node">
<title>K1</title>
<ellipse fill="none" stroke="darkgray" cx="100.5" cy="-234" rx="48.79" ry="18"/>
<text text-anchor="middle" x="100.5" y="-228.95" font-family="Times,serif" font-size="14.00" fill="darkgray">K1 (node)</text>
</g>
<!-- LTK1 -->
<g id="node2" class="node">
<title>LTK1</title>
<polygon fill="none" stroke="black" stroke-dasharray="1,5" points="74.5,-180 16.5,-180 16.5,-144 74.5,-144 74.5,-180"/>
<text text-anchor="middle" x="45.5" y="-155.82" font-family="Italic" font-size="14.00">K &lt; K1</text>
</g>
<!-- K1&#45;&gt;LTK1 -->
<g id="edge1" class="edge">
<title>K1&#45;&gt;LTK1</title>
<path fill="none" stroke="black" d="M87.47,-216.41C81.15,-208.37 73.4,-198.51 66.3,-189.47"/>
<polygon fill="black" stroke="black" points="69.07,-187.34 60.14,-181.64 63.57,-191.66 69.07,-187.34"/>
</g>
<!-- K3 -->
<g id="node3" class="node">
<title>K3</title>
<ellipse fill="none" stroke="darkgray" cx="156.5" cy="-162" rx="64.15" ry="18"/>
<text text-anchor="middle" x="156.5" y="-156.95" font-family="Times,serif" font-size="14.00" fill="darkgray">K3 (newRoot)</text>
</g>
<!-- K1&#45;&gt;K3 -->
<g id="edge2" class="edge">
<title>K1&#45;&gt;K3</title>
<path fill="none" stroke="black" d="M113.77,-216.41C120.37,-208.16 128.49,-198.01 135.88,-188.78"/>
<polygon fill="black" stroke="black" points="138.48,-191.13 141.99,-181.14 133.01,-186.76 138.48,-191.13"/>
</g>
<!-- K2 -->
<g id="node4" class="node">
<title>K2</title>
<ellipse fill="none" stroke="darkgray" cx="99.5" cy="-90" rx="66.71" ry="18"/>
<text text-anchor="middle" x="99.5" y="-84.95" font-family="Times,serif" font-size="14.00" fill="darkgray">K2 (newChild)</text>
</g>
<!-- K3&#45;&gt;K2 -->
<g id="edge3" class="edge">
<title>K3&#45;&gt;K2</title>
<path fill="none" stroke="black" d="M142.7,-144.05C135.98,-135.8 127.76,-125.7 120.3,-116.54"/>
<polygon fill="black" stroke="black" points="123.16,-114.51 114.13,-108.96 117.73,-118.93 123.16,-114.51"/>
</g>
<!-- GTK3 -->
<g id="node5" class="node">
<title>GTK3</title>
<polygon fill="none" stroke="black" stroke-dasharray="1,5" points="242.5,-108 184.5,-108 184.5,-72 242.5,-72 242.5,-108"/>
<text text-anchor="middle" x="213.5" y="-83.83" font-family="Italic" font-size="14.00">K &gt; K3</text>
</g>
<!-- K3&#45;&gt;GTK3 -->
<g id="edge4" class="edge">
<title>K3&#45;&gt;GTK3</title>
<path fill="none" stroke="black" d="M170.3,-144.05C176.92,-135.92 185,-126 192.38,-116.94"/>
<polygon fill="black" stroke="black" points="194.88,-119.41 198.48,-109.45 189.45,-114.99 194.88,-119.41"/>
</g>
<!-- LTK2GTK1 -->
<g id="node6" class="node">
<title>LTK2GTK1</title>
<polygon fill="none" stroke="black" stroke-dasharray="1,5" points="91,-36 0,-36 0,0 91,0 91,-36"/>
<text text-anchor="middle" x="45.5" y="-11.82" font-family="Italic" font-size="14.00">K1 &lt; K &lt; K2</text>
</g>
<!-- K2&#45;&gt;LTK2GTK1 -->
<g id="edge5" class="edge">
<title>K2&#45;&gt;LTK2GTK1</title>
<path fill="none" stroke="black" d="M86.43,-72.05C80.22,-64.01 72.66,-54.2 65.73,-45.23"/>
<polygon fill="black" stroke="black" points="68.63,-43.25 59.75,-37.47 63.09,-47.53 68.63,-43.25"/>
</g>
<!-- GTK2LTK3 -->
<g id="node7" class="node">
<title>GTK2LTK3</title>
<polygon fill="none" stroke="black" stroke-dasharray="1,5" points="200,-36 109,-36 109,0 200,0 200,-36"/>
<text text-anchor="middle" x="154.5" y="-11.82" font-family="Italic" font-size="14.00">K2 &lt; K &lt; K3</text>
</g>
<!-- K2&#45;&gt;GTK2LTK3 -->
<g id="edge6" class="edge">
<title>K2&#45;&gt;GTK2LTK3</title>
<path fill="none" stroke="black" d="M112.81,-72.05C119.14,-64.01 126.84,-54.2 133.89,-45.23"/>
<polygon fill="black" stroke="black" points="136.57,-47.49 139.99,-37.47 131.06,-43.17 136.57,-47.49"/>
</g>
</g>
</svg>
